<?xml version="1.0" encoding="utf-8"?>
<!-- Generator: Adobe Illustrator 26.0.1, SVG Export Plug-In . SVG Version: 6.00 Build 0)  -->
<svg version="1.2" baseProfile="tiny" id="Layer_1" xmlns="http://www.w3.org/2000/svg" xmlns:xlink="http://www.w3.org/1999/xlink"
	 x="0px" y="0px" viewBox="0 0 360 90" overflow="visible" xml:space="preserve">
<linearGradient id="SVGID_1_" gradientUnits="userSpaceOnUse" x1="358.6776" y1="46.1584" x2="31.5356" y2="44.0374">
	<stop  offset="0" style="stop-color:#FFFFFF"/>
	<stop  offset="0" style="stop-color:#FDFDFD"/>
	<stop  offset="0" style="stop-color:#F6F7F7"/>
	<stop  offset="0" style="stop-color:#EBEBEC"/>
	<stop  offset="0" style="stop-color:#E5E6E7"/>
	<stop  offset="4.145842e-02" style="stop-color:#D7D8DA"/>
	<stop  offset="0.1788" style="stop-color:#ACAEB0"/>
	<stop  offset="0.3074" style="stop-color:#8C8E90"/>
	<stop  offset="0.4235" style="stop-color:#76777A"/>
	<stop  offset="0.5233" style="stop-color:#68696B"/>
	<stop  offset="0.595" style="stop-color:#636466"/>
	<stop  offset="0.8264" style="stop-color:#505052"/>
	<stop  offset="1" style="stop-color:#454547"/>
</linearGradient>
<rect fill="url(#SVGID_1_)" width="360" height="90"/>
<image width="179" height="159" xlink:href="D5DDC4DA.png"  transform="matrix(0.24 0 0 0.24 305.04 12.48)">
</image>
<image width="179" height="159" xlink:href="D5DDC4DE.png"  transform="matrix(0.24 0 0 0.24 294 48)">
</image>
<image width="179" height="159" xlink:href="D5DDC4D9.png"  transform="matrix(0.24 0 0 0.24 254.16 36.96)">
</image>
<image width="179" height="159" xlink:href="D5DDC4DB.png"  transform="matrix(0.24 0 0 0.24 265.2 1.44)">
</image>
<g>
	<g>
		<path fill="#010101" d="M14,34.3v-3.6h13.7v3.6H14z M14,57.5v-3.6h13.7v3.6H14z M19.2,57.5V30.7h3.3v26.8H19.2z"/>
		<path fill="#010101" d="M33.1,57.5v-20h3l0.3,4.3v15.8H33.1z M43.4,57.5v-13c0-1.2-0.3-2.2-0.8-2.8c-0.6-0.7-1.3-1-2.2-1
			c-2.7,0-4,1.9-4,5.6l-1-5.1h1.3c0.1-1.3,0.5-2.4,1.2-3c0.7-0.7,1.8-1,3.2-1c1.8,0,3.1,0.7,4.1,1.9c1,1.3,1.4,3.1,1.4,5.5v13H43.4z
			"/>
		<path fill="#010101" d="M57.7,57.9c-1.3,0-2.4-0.1-3.3-0.1c-0.9-0.1-1.7-0.2-2.5-0.4l0.4-3.6c1.1,0.2,2.1,0.3,2.9,0.4
			c0.8,0.1,1.7,0.2,2.4,0.2c1.7,0,2.9-0.2,3.7-0.6c0.8-0.4,1.2-1,1.2-1.9c0-0.6-0.1-1-0.4-1.4c-0.3-0.3-0.7-0.6-1.2-0.7l-3.9-1.2
			c-1.7-0.5-2.9-1.1-3.6-1.9s-1.2-1.9-1.2-3.4c0-2.2,0.7-3.8,2.1-4.7c1.4-1,3.7-1.5,6.8-1.5c0.8,0,1.6,0,2.3,0.1
			c0.7,0.1,1.4,0.2,2.2,0.3L65.3,41c-0.9-0.1-1.6-0.2-2.3-0.2c-0.7-0.1-1.3-0.1-1.9-0.1c-1.9,0-3.3,0.2-4.1,0.6
			c-0.8,0.4-1.3,1-1.3,1.9c0,0.6,0.2,1,0.5,1.3c0.3,0.3,0.9,0.5,1.6,0.7l3.1,0.9c1.8,0.5,3,1.2,3.9,2c0.8,0.8,1.2,2.1,1.2,3.7
			c0,2.2-0.7,3.7-2,4.7C62.7,57.4,60.6,57.9,57.7,57.9z"/>
		<path fill="#010101" d="M71,57.5V54h6.7v3.5H71z M72,41v-3.5h8.8V41H72z M79,34.3c-0.7,0-1.2-0.3-1.7-0.8s-0.7-1.2-0.7-2
			s0.2-1.4,0.7-2c0.4-0.6,1-0.8,1.7-0.8s1.2,0.3,1.7,0.8c0.4,0.6,0.7,1.2,0.7,2s-0.2,1.4-0.7,2S79.6,34.3,79,34.3z M77.4,57.5V38.7
			h3.4v18.9H77.4z M80.5,57.5V54h5.5v3.5H80.5z"/>
		<path fill="#010101" d="M95.7,57.9c-2.2,0-3.9-0.9-5-2.6c-1.2-1.7-1.7-4.3-1.7-7.6c0-3.5,0.6-6.1,1.7-7.9c1.2-1.8,2.8-2.7,5-2.7
			c1.3,0,2.3,0.3,3.1,1c0.8,0.7,1.3,1.7,1.4,2.9h1.3l-1,5.7c0-2-0.3-3.6-1-4.7c-0.7-1-1.7-1.6-3-1.6c-1.3,0-2.4,0.6-3.1,1.8
			c-0.7,1.2-1,3-1,5.4c0,2.3,0.3,3.9,1,5.1c0.7,1.2,1.7,1.7,3.1,1.7c1.3,0,2.3-0.6,3-1.6c0.7-1,1-2.7,1-4.7l1.2,5.7h-1.4
			c-0.1,1.3-0.6,2.3-1.3,2.9S97,57.9,95.7,57.9z M100.9,57.8l-0.3-3.9V29.2h3.4v28.3L100.9,57.8z"/>
		<path fill="#010101" d="M117.5,57.9c-2.9,0-5.1-0.9-6.6-2.7c-1.5-1.8-2.3-4.4-2.3-7.7c0-3.3,0.7-5.8,2-7.6s3.2-2.7,5.6-2.7
			c2.3,0,4,0.8,5.2,2.5c1.2,1.7,1.9,4,1.9,7.1c0,0.9-0.1,1.8-0.1,2.5h-11.8v-3h8.8c0-1.8-0.3-3.2-1.1-4.1c-0.7-1-1.7-1.4-3-1.4
			c-1.4,0-2.5,0.6-3.3,1.7c-0.8,1.2-1.2,2.8-1.2,4.9c0,2.3,0.6,4.1,1.6,5.3c1.1,1.2,2.7,1.8,4.6,1.8c0.7,0,1.4-0.1,2-0.2
			c0.7-0.1,1.4-0.2,2-0.4l0.4,3.5c-1,0.2-1.9,0.4-2.7,0.4C118.9,57.9,118.1,57.9,117.5,57.9z"/>
		<path fill="#010101" d="M126.8,34.3v-3.6h16.5v3.6H126.8z M133.4,57.5V30.7h3.3v26.8H133.4z"/>
		<path fill="#010101" d="M147.2,57.5V29.2h3.4v28.3H147.2z M157.6,57.5v-13c0-1.3-0.3-2.3-0.8-2.9c-0.6-0.7-1.3-1-2.2-1
			c-2.7,0-4,1.9-4,5.7l-1-5.1h1.3c0.1-1.3,0.5-2.4,1.2-3s1.8-1,3.2-1c1.8,0,3.1,0.7,4.1,1.9c1,1.3,1.4,3.1,1.4,5.5v13H157.6
			L157.6,57.5z"/>
		<path fill="#010101" d="M174.6,57.9c-2.9,0-5.1-0.9-6.6-2.7c-1.5-1.8-2.3-4.4-2.3-7.7c0-3.3,0.7-5.8,2-7.6s3.2-2.7,5.6-2.7
			c2.3,0,4,0.8,5.2,2.5c1.2,1.7,1.9,4,1.9,7.1c0,0.9-0.1,1.8-0.1,2.5h-11.8v-3h8.8c0-1.8-0.3-3.2-1.1-4.1c-0.7-1-1.7-1.4-3-1.4
			c-1.4,0-2.5,0.6-3.3,1.7c-0.8,1.2-1.2,2.8-1.2,4.9c0,2.3,0.6,4.1,1.6,5.3c1.1,1.2,2.7,1.8,4.6,1.8c0.7,0,1.4-0.1,2-0.2
			c0.7-0.1,1.4-0.2,2-0.4l0.4,3.5c-1,0.2-1.9,0.4-2.7,0.4C175.9,57.9,175.2,57.9,174.6,57.9z"/>
	</g>
</g>
<g>
	<g>
		<image width="139" height="117" xlink:href="D5DDC4D8.png"  transform="matrix(0.24 0 0 0.24 194.16 29.52)">
		</image>
		<path fill="#010101" d="M219.9,57.9H217l-4.6-16.5c-0.6-2.2-1.2-4.5-1.6-6.7c-0.4,2.2-1,4.5-1.7,6.9l-4.6,16.4h-2.9l-8-28.7h3.5
			l4.1,15.2c0.8,3,1.4,5.5,1.9,7.9c0.4-2.4,1.1-4.6,1.8-7.1l0.2-0.9l4.1-15.1h3l4.6,16c0.6,2.2,1.3,4.4,1.7,7c0.6-3,1.2-5.5,2-8.1
			l4-14.9h3.5L219.9,57.9z M217.8,56.9h1.4l7.5-26.7h-1.4l-3.8,14.2c-0.9,3.2-1.7,6.2-2.4,10.3l-0.1,0.4h-1l-0.1-0.4
			c-0.5-3.5-1.3-6.3-2.1-9.2l-4.4-15.3H210l-4.1,15.2c-1,3.4-1.7,6-2.1,9.3l-0.1,0.4h-1.1l-0.1-0.4c-0.5-3.2-1.2-6.2-2.3-10.1
			l-3.9-14.4h-1.4l7.5,26.7h1.4l4.4-15.6c1-3.3,1.6-6.3,2.1-9.2l0.1-0.4h1l0.1,0.4c0.5,2.9,1.3,6.1,2.1,9.1L217.8,56.9z"/>
	</g>
	<g>
		<image width="16" height="111" xlink:href="D5DDC4E6.png"  transform="matrix(0.24 0 0 0.24 231.12 30.96)">
		</image>
		<path fill="#010101" d="M234.8,57.9h-3.4V37.2h3.4V57.9z M232.4,56.9h1.4V38.2h-1.4V56.9z M233,34.7c-1.3,0-2.2-0.8-2.2-2
			c0-1.2,1-2,2.3-2c1.5,0.1,2.4,0.8,2.4,2C235.4,33.9,234.5,34.7,233,34.7z M233,31.6c-0.7,0-1.2,0.4-1.2,1c0,0.9,0.8,1,1.2,1
			c1.4,0,1.4-0.8,1.4-1C234.4,32,233.9,31.6,233,31.6z"/>
	</g>
	<g>
		<image width="62" height="85" xlink:href="D5DDC4E9.png"  transform="matrix(0.24 0 0 0.24 240.48 37.2)">
		</image>
		<path fill="#010101" d="M255.7,57.9h-3.4V44.4c0-3.6-1.2-5.1-3.9-5.1c-2.2,0-3.9,1.5-4.4,3.7c-0.1,0.5-0.1,1-0.1,1.6v13.2h-3.4
			V42.7l-0.1-0.5c0-1.5-0.1-2.4-0.1-3.2c0-0.4-0.1-0.9-0.1-1.4l0-0.5h3.2l0.1,1.7c1.3-1.3,3.3-2,5.6-2c4.2,0,6.6,2.6,6.6,6.9V57.9z
			 M253.3,56.9h1.4V43.7c0-5.1-3.5-5.9-5.6-5.9c-2.5,0-4.6,0.9-5.5,2.5l-0.1,0.2h-0.9l-0.1-2.4h-1.2c0,0.3,0,0.6,0.1,0.8
			c0.1,0.7,0.1,1.5,0.1,2.7h0.1v15.1h1.4V44.7c0-0.6,0-1.2,0.1-1.8c0.6-2.8,2.7-4.5,5.3-4.5c4.9,0,4.9,4.6,4.9,6.1V56.9z"/>
	</g>
	<g>
		<image width="66" height="121" xlink:href="D5DDC4EA.png"  transform="matrix(0.24 0 0 0.24 260.4 28.8)">
		</image>
		<path fill="#010101" d="M267.9,58.3c-3.7,0-8-2.8-8-10.6c0-7.4,4.2-10.8,8.3-10.8c1.9,0,3.6,0.6,4.7,1.8V28.5h3.4v24.9
			c0,1,0.2,3.2,0.2,4l0,0.5h-3.1l-0.2-2C272.5,56.9,270.8,58.3,267.9,58.3z M268.2,37.9c-3.6,0-7.3,3-7.3,9.8c0,7.1,3.6,9.6,7,9.6
			c3.4,0,4.8-2.1,5.2-2.7l0.1-0.3h1l0.2,2.7h1.1c-0.1-1-0.2-2.7-0.2-3.5V29.5H274v10.9h-0.9l-0.1-0.2
			C271.7,38.3,269.7,37.9,268.2,37.9z M268.2,56.7c-4.2,0-5.7-4.7-5.7-9.1c0-5.7,2.3-9.1,6.1-9.1c2.7,0,5.1,2.4,5.4,5.3
			c0.1,0.5,0.1,1,0.1,1.4v0l-0.1,5.2c0,0.5,0,1.1-0.1,1.5C272.5,55.9,270,56.7,268.2,56.7z M268.5,39.5c-4.6,0-5.1,5.7-5.1,8.1
			c0,3.9,1.2,8.1,4.7,8.1c2.2,0,3.8-1.4,4.7-4.1c0.1-0.3,0.1-0.8,0.1-1.2l0.1-5.2c0-0.4,0-0.9-0.1-1.3
			C272.7,41.5,270.7,39.5,268.5,39.5z"/>
	</g>
	<g>
		<image width="67" height="86" xlink:href="D5DDC4E8.png"  transform="matrix(0.24 0 0 0.24 281.04 37.2)">
		</image>
		<path fill="#010101" d="M288.9,58.3c-3.8,0-8.3-2.8-8.3-10.7c0-7.9,4.5-10.7,8.7-10.7c3.8,0.1,8.2,2.9,8.2,10.7
			C297.5,55.4,293,58.3,288.9,58.3z M289.2,37.8c-3.7,0-7.7,2.6-7.7,9.7c0,7.2,3.9,9.7,7.3,9.7c3.7,0,7.6-2.6,7.6-9.7
			C296.5,40.5,292.6,37.9,289.2,37.8z M289.1,56.7c-5.5,0-6-7-6-9.1c0-2.1,0.4-9.1,5.9-9.1c5.5,0,6,7,6,9.1
			C294.9,49.7,294.5,56.7,289.1,56.7z M289,39.4c-4.4,0-4.9,5.7-4.9,8.1s0.5,8.1,5,8.1c4.4,0,4.9-5.7,4.9-8.1S293.5,39.4,289,39.4z"
			/>
	</g>
	<g>
		<image width="118" height="83" xlink:href="E90D73DD.png"  transform="matrix(0.24 0 0 0.24 299.76 37.68)">
		</image>
		<path fill="#010101" d="M321.6,58H319l-3.9-11.6c-0.5-1.4-0.8-2.6-1.1-3.9c-0.4,1.5-0.7,2.8-1.2,4.1L308.9,58h-2.8l-6.9-20.7h2.6
			v-2.7l1,3l3.3,10.4c0.5,1.6,1,3.2,1.4,4.9c0.4-1.5,0.9-3.2,1.4-4.8l3.6-10.8h2.7l3.5,10.4c0.5,1.6,1.1,3.3,1.5,5.1
			c0.3-1.5,0.8-2.9,1.2-4.4l3.4-11.2h3.6L321.6,58z M319.8,57h1.1l6.3-18.7h-1.4l-3.2,10.5c-0.7,2.1-1.2,3.9-1.6,5.9l-0.1,0.4h-1
			l-0.1-0.4c-0.6-2.4-1.3-4.7-1.9-6.7l-3.3-9.8h-1.2L310,48.4c-0.8,2.2-1.4,4.5-1.8,6.3l-0.1,0.4h-1l-0.1-0.4
			c-0.4-2.1-1.1-4.3-1.7-6.4l-3.2-10h-1.4l6.2,18.7h1.3l3.6-10.8c0.6-1.8,1.1-3.5,1.6-5.9l0.1-0.4h0.9l0.1,0.6
			c0.5,2.1,0.8,3.6,1.5,5.5L319.8,57z"/>
	</g>
	<g>
		<image width="51" height="86" xlink:href="E90D73D3.png"  transform="matrix(0.24 0 0 0.24 330.24 37.2)">
		</image>
		<path fill="#010101" d="M335.1,58.1c-1.9,0-3.9-0.5-5.1-1.2l-0.4-0.3l1.4-2.2l0.4,0.2c0.9,0.5,2.3,1,3.8,1c2.6,0,4.1-1.2,4.1-3.1
			c0-1.5-0.6-2.7-3.4-4.1c-3-1.6-5.7-3.2-5.7-6c0-3.4,3.6-5.5,7.1-5.5c2.2,0,3.7,0.6,4.6,1.1l0.5,0.3l-1.7,2.2l-0.4-0.2
			c-1.1-0.6-2.1-0.9-3.2-0.9c-2.3,0-3.5,1.3-3.5,2.5c0,1.3,0.4,2,3.2,3.5c2.6,1.4,5.9,3.1,5.9,6.5C342.8,56.5,338.6,58.1,335.1,58.1
			z M331,56.3c1,0.5,2.6,0.8,4.1,0.8c3.1,0,6.7-1.3,6.7-5.1c0-2.8-2.8-4.3-5.3-5.6c-2.9-1.6-3.8-2.6-3.8-4.4c0-1.7,1.6-3.5,4.5-3.5
			c1.2,0,2.2,0.3,3.3,0.8l0.4-0.6c-0.8-0.4-2-0.7-3.6-0.7c-3,0-6.1,1.7-6.1,4.5c0,2.3,2.3,3.7,5.1,5.1c2.8,1.4,3.9,2.8,3.9,5
			c0,2.5-2,4.1-5.1,4.1c-1.5,0-2.9-0.5-3.8-0.9L331,56.3z"/>
	</g>
</g>
</svg>
