<?xml version="1.0" encoding="utf-8"?>
<!-- Generator: Adobe Illustrator 26.0.1, SVG Export Plug-In . SVG Version: 6.00 Build 0)  -->
<svg version="1.1" id="Layer_1" xmlns="http://www.w3.org/2000/svg" xmlns:xlink="http://www.w3.org/1999/xlink" x="0px" y="0px"
	 viewBox="0 0 800 1000" style="enable-background:new 0 0 800 1000;" xml:space="preserve">
<style type="text/css">
	.st0{fill:url(#SVGID_1_);}
	.st1{fill:#9ABF3C;stroke:#000000;stroke-width:0.5;stroke-miterlimit:10;}
	.st2{fill:#FFD44C;stroke:#000000;stroke-width:0.5;stroke-miterlimit:10;}
	.st3{fill:#4A80C2;stroke:#000000;stroke-width:0.5;stroke-miterlimit:10;}
	.st4{fill:#E77C24;stroke:#000000;stroke-width:0.5;stroke-miterlimit:10;}
	.st5{fill:#F47C20;stroke:#000000;stroke-width:0.5;stroke-miterlimit:10;}
	.st6{fill:none;stroke:#000000;stroke-miterlimit:10;}
	.st7{stroke:#000000;stroke-miterlimit:10;}
</style>
<linearGradient id="SVGID_1_" gradientUnits="userSpaceOnUse" x1="0" y1="500" x2="800" y2="500">
	<stop  offset="0" style="stop-color:#434244"/>
	<stop  offset="0.0855" style="stop-color:#525355"/>
	<stop  offset="0.2821" style="stop-color:#737477"/>
	<stop  offset="0.4162" style="stop-color:#86888B"/>
	<stop  offset="0.5547" style="stop-color:#979A9C"/>
	<stop  offset="0.6754" style="stop-color:#B0B2B5"/>
	<stop  offset="0.8408" style="stop-color:#D3D5D6"/>
	<stop  offset="1" style="stop-color:#FFFFFF"/>
</linearGradient>
<rect class="st0" width="800" height="1000"/>
<path class="st1" d="M695.83,430.36c-0.63,0.3-3.69,1.68-6.83,0.32c-1.01-0.44-1.76-1.05-2.28-1.57c0.77-2.7,1.55-5.4,2.32-8.09
	c0.54,0.56,1.46,1.37,2.81,1.88c3.02,1.13,5.76-0.12,6.35-0.41C697.42,425.12,696.62,427.74,695.83,430.36z"/>
<path class="st2" d="M692.88,440.21c-0.63,0.3-3.69,1.68-6.83,0.32c-1.01-0.44-1.76-1.05-2.28-1.57c0.77-2.7,1.55-5.4,2.32-8.09
	c0.54,0.56,1.46,1.37,2.81,1.88c3.02,1.13,5.76-0.12,6.35-0.41C694.47,434.96,693.68,437.58,692.88,440.21z"/>
<path class="st3" d="M675.46,428.8c0.63-0.3,3.69-1.68,6.83-0.32c1.01,0.44,1.76,1.05,2.28,1.57c-0.77,2.7-1.55,5.4-2.32,8.09
	c-0.54-0.56-1.46-1.37-2.81-1.88c-3.02-1.13-5.76,0.12-6.35,0.41C673.87,434.04,674.66,431.42,675.46,428.8z"/>
<path class="st4" d="M678.4,418.95c0.63-0.3,3.69-1.68,6.83-0.32c1.01,0.44,1.76,1.05,2.28,1.57c-0.77,2.7-1.55,5.4-2.32,8.09
	c-0.54-0.56-1.46-1.37-2.81-1.88c-3.02-1.13-5.76,0.12-6.35,0.41C676.81,424.2,677.61,421.58,678.4,418.95z"/>
<g>
	<g>
		<path d="M103.52,434.91v-6.5h24.81v6.5H103.52z M103.52,477.01v-6.5h24.81v6.5H103.52z M112.91,477.01v-48.6h5.97v48.6H112.91z"/>
		<path d="M137.98,477.01v-36.28h5.51l0.57,7.67v28.61H137.98z M156.7,477.01v-23.61c0-2.19-0.48-3.88-1.44-5.06
			c-0.96-1.19-2.3-1.78-4.02-1.78c-4.79,0-7.18,3.35-7.18,10.06l-1.78-9.31h2.35c0.17-2.44,0.92-4.26,2.24-5.46
			c1.32-1.2,3.25-1.8,5.8-1.8c3.22,0,5.7,1.16,7.47,3.49c1.76,2.33,2.64,5.61,2.64,9.86v23.61H156.7z"/>
		<path d="M182.48,477.69c-2.3,0-4.26-0.08-5.9-0.24c-1.64-0.16-3.13-0.42-4.49-0.79l0.69-6.57c2.01,0.36,3.79,0.64,5.33,0.82
			s3,0.27,4.38,0.27c3.08,0,5.32-0.36,6.7-1.08c1.39-0.72,2.08-1.87,2.08-3.44c0-1.1-0.24-1.91-0.73-2.45s-1.24-0.95-2.25-1.25
			l-7.01-2.12c-3-0.91-5.21-2.04-6.62-3.39s-2.11-3.39-2.11-6.13c0-3.97,1.28-6.84,3.83-8.62c2.56-1.78,6.68-2.67,12.36-2.67
			c1.47,0,2.85,0.05,4.12,0.15c1.27,0.1,2.58,0.28,3.92,0.53l-0.63,6.3c-1.55-0.18-2.92-0.31-4.11-0.38
			c-1.19-0.07-2.34-0.1-3.47-0.1c-3.41,0-5.88,0.35-7.41,1.04c-1.53,0.7-2.3,1.83-2.3,3.4c0,1.05,0.32,1.81,0.95,2.28
			c0.63,0.47,1.6,0.9,2.9,1.28l5.63,1.64c3.2,0.91,5.54,2.13,7.02,3.66c1.48,1.53,2.22,3.75,2.22,6.67c0,3.9-1.2,6.74-3.59,8.5
			C191.6,476.81,187.77,477.69,182.48,477.69z"/>
		<path d="M206.66,477.01v-6.37h12.17v6.37H206.66z M208.38,447.1v-6.37h15.96v6.37H208.38z M221.1,434.98c-1.17,0-2.17-0.5-3-1.49
			c-0.83-0.99-1.25-2.18-1.25-3.58c0-1.41,0.42-2.61,1.25-3.59c0.83-0.98,1.83-1.47,3-1.47c1.19,0,2.19,0.49,3.02,1.47
			c0.82,0.98,1.23,2.18,1.23,3.59c0,1.39-0.41,2.58-1.23,3.58C223.29,434.48,222.29,434.98,221.1,434.98z M218.26,477.01v-34.22
			h6.09v34.22H218.26z M223.77,477.01v-6.37h9.93v6.37H223.77z"/>
		<path d="M251.42,477.69c-3.98,0-7-1.56-9.06-4.69c-2.06-3.13-3.09-7.72-3.09-13.79c0-6.3,1.03-11.06,3.09-14.3
			c2.06-3.24,5.08-4.86,9.06-4.86c2.28,0,4.13,0.64,5.56,1.92c1.43,1.28,2.26,3.06,2.51,5.34h2.35l-1.78,10.33
			c0-3.74-0.62-6.58-1.85-8.52s-3.05-2.91-5.44-2.91c-2.45,0-4.31,1.1-5.57,3.29c-1.26,2.19-1.89,5.43-1.89,9.72
			c0,4.06,0.63,7.13,1.89,9.21c1.26,2.08,3.12,3.11,5.57,3.11c2.39,0,4.21-0.97,5.44-2.91c1.23-1.94,1.85-4.78,1.85-8.52l2.07,10.33
			h-2.64c-0.19,2.28-1,4.06-2.43,5.34S253.76,477.69,251.42,477.69z M260.7,477.35l-0.63-7.12v-44.56h6.09v51.33L260.7,477.35z"/>
		<path d="M290.85,477.69c-5.19,0-9.19-1.63-12.02-4.88c-2.82-3.25-4.23-7.92-4.23-14.01c0-5.93,1.2-10.54,3.59-13.83
			c2.39-3.29,5.77-4.93,10.14-4.93c4.12,0,7.3,1.48,9.55,4.45c2.25,2.97,3.37,7.28,3.37,12.94c0,1.67-0.06,3.22-0.17,4.65H279.7
			v-5.54h16.02c0-3.26-0.65-5.77-1.95-7.51c-1.3-1.75-3.1-2.62-5.4-2.62c-2.58,0-4.59,1.05-6.01,3.15c-1.43,2.1-2.14,5.06-2.14,8.9
			c0,4.2,0.98,7.39,2.94,9.58c1.96,2.19,4.75,3.29,8.37,3.29c1.26,0,2.51-0.09,3.73-0.26c1.22-0.17,2.47-0.4,3.73-0.7l0.75,6.37
			c-1.8,0.41-3.45,0.67-4.94,0.79C293.31,477.63,291.99,477.69,290.85,477.69z"/>
		<path d="M307.73,434.91v-6.5h29.86v6.5H307.73z M319.67,477.01v-48.6h5.97v48.6H319.67z"/>
		<path d="M344.71,477.01v-51.33h6.09v51.33H344.71z M363.43,477.01v-23.61c0-2.3-0.48-4.08-1.44-5.32
			c-0.96-1.24-2.3-1.87-4.02-1.87c-4.79,0-7.18,3.47-7.18,10.4l-1.78-9.31h2.35c0.17-2.44,0.92-4.26,2.24-5.46
			c1.32-1.2,3.25-1.8,5.8-1.8c3.22,0,5.7,1.16,7.47,3.49c1.76,2.33,2.64,5.61,2.64,9.86v23.61H363.43z"/>
		<path d="M394.21,477.69c-5.19,0-9.19-1.63-12.02-4.88c-2.82-3.25-4.23-7.92-4.23-14.01c0-5.93,1.2-10.54,3.59-13.83
			c2.39-3.29,5.77-4.93,10.14-4.93c4.12,0,7.3,1.48,9.55,4.45c2.25,2.97,3.37,7.28,3.37,12.94c0,1.67-0.06,3.22-0.17,4.65h-21.36
			v-5.54h16.02c0-3.26-0.65-5.77-1.95-7.51c-1.3-1.75-3.1-2.62-5.4-2.62c-2.58,0-4.59,1.05-6.01,3.15c-1.43,2.1-2.14,5.06-2.14,8.9
			c0,4.2,0.98,7.39,2.94,9.58c1.96,2.19,4.75,3.29,8.37,3.29c1.26,0,2.51-0.09,3.73-0.26c1.22-0.17,2.47-0.4,3.73-0.7l0.75,6.37
			c-1.8,0.41-3.45,0.67-4.94,0.79C396.68,477.63,395.36,477.69,394.21,477.69z"/>
	</g>
</g>
<g>
	<g>
		<path d="M427.92,477.71l-14-50.19h4.46l7.31,26.81c1.83,6.63,3.14,12.21,4.06,18.39h0.41c0.81-6.48,2.43-11.84,4.26-18.54
			l7.2-26.66h4.06l7.41,25.99c1.72,6.11,3.45,11.91,4.46,19.21h0.3c1.32-7.67,2.74-13.18,4.26-18.84l7.1-26.36h4.36l-14.1,50.19
			h-3.86l-8.12-29.34c-1.52-5.73-2.94-11.32-3.75-16.46h-0.2c-0.81,5.44-2.03,10.72-3.75,16.75l-8.12,29.04H427.92z"/>
		<path d="M487.57,432.81c0,1.71-1.12,2.75-3.45,2.75c-1.83,0-3.14-1.04-3.14-2.75c0-1.64,1.32-2.76,3.25-2.76
			C486.46,430.05,487.57,431.17,487.57,432.81z M482.09,477.71v-35.74h4.36v35.74H482.09z"/>
		<path d="M498.43,450.23c0-4.39-0.3-5.73-0.41-8.27h3.96l0.2,4.39h0.2c1.83-2.9,5.58-4.99,10.75-4.99
			c5.17,0,11.06,2.53,11.06,11.62v24.72h-4.36v-23.46c0-5.06-1.22-10.13-8.01-10.13c-3.96,0-7.81,2.53-8.83,7.45
			c-0.2,0.97-0.2,2.01-0.2,3.13v23.01h-4.36V450.23z"/>
		<path d="M561.73,426.18v44.23c0,1.79,0.3,5.96,0.41,7.3h-3.75l-0.41-4.77h-0.41c-1.42,2.53-4.67,5.36-10.25,5.36
			c-6.9,0-13.6-5.36-13.6-18.32c0-12.81,7.1-18.62,14.1-18.62c3.15,0,7,0.97,9.33,4.62h0.2v-19.81H561.73z M557.37,455.44
			c0-0.82,0-1.71-0.1-2.53c-0.41-4.69-4.36-8.71-8.83-8.71c-7.61,0-10.15,7.67-10.15,15.64c0,8.04,2.74,15.64,9.54,15.64
			c2.84,0,7.1-1.12,9.33-7.97c0.2-0.74,0.2-1.64,0.2-2.46V455.44z"/>
		<path d="M599.98,459.83c0,13.18-7.2,18.47-14.71,18.47c-6.9,0-14.1-5.29-14.1-18.47s7.2-18.47,14.81-18.47
			C592.88,441.37,599.98,446.65,599.98,459.83z M575.73,459.83c0,5.81,1.52,15.64,9.94,15.64c8.22,0,9.74-9.83,9.74-15.64
			s-1.52-15.64-9.94-15.64C577.25,444.2,575.73,454.03,575.73,459.83z"/>
		<path d="M609.71,441.96l5.99,18.76c1.22,3.8,2.54,7.89,3.25,11.77h0.41c0.81-3.87,2.13-8.19,3.35-11.62l6.39-18.91h3.45
			l6.09,18.32c1.32,3.95,2.54,7.89,3.55,12.21h0.41c0.71-4.02,1.93-7.67,3.25-11.91l5.68-18.62h4.46l-12.07,35.74h-3.35l-6.9-20.4
			c-1.32-3.65-1.93-6.4-2.84-10.5h-0.2c-0.91,4.32-1.83,7.37-2.94,10.8l-6.8,20.1h-3.65l-11.87-35.74H609.71z"/>
		<path d="M661.86,473.46c1.62,0.82,4.26,1.86,7.3,1.86c5.07,0,8.42-2.53,8.42-6.48c0-3.2-1.32-5.58-6.59-8.34
			c-5.38-2.83-9.84-5.51-9.84-10.13c0-5.44,5.68-9.01,11.87-9.01c3.65,0,6.29,1.04,7.91,1.94l-1.93,2.61
			c-1.83-1.04-3.75-1.71-6.29-1.71c-4.67,0-7.2,2.75-7.2,5.51c0,2.9,1.32,4.54,6.29,7.22c4.67,2.46,10.25,5.44,10.25,11.02
			c0,7.07-6.39,10.2-13.09,10.2c-3.25,0-6.7-0.82-8.73-2.08L661.86,473.46z"/>
	</g>
</g>
<g>
	<g>
		<path d="M250.55,502.24c-0.16-2.63-0.34-5.69-0.3-7.64h-0.09c-0.56,1.92-1.2,3.95-2.1,6.49l-3.32,9.43h-0.77l-3.12-9.14
			c-0.91-2.71-1.59-4.81-2.07-6.78h-0.08c-0.02,2.08-0.13,4.97-0.32,7.87l-0.48,8.05h-1.18l1.16-17.4h1.37l3.35,9.72
			c0.77,2.25,1.33,3.95,1.8,5.72h0.06c0.43-1.73,0.98-3.35,1.79-5.71l3.42-9.73h1.45l1.1,17.4h-1.19L250.55,502.24z"/>
		<path d="M268.17,501.7c0,6.24-3.28,9.08-6.86,9.08c-3.67,0-6.64-3.08-6.64-8.84c0-5.92,3.08-9.08,6.88-9.08
			C265.29,492.86,268.17,495.97,268.17,501.7z M255.92,501.92c0,3.75,1.8,7.85,5.5,7.85c3.71,0,5.51-3.99,5.51-8.01
			c0-3.57-1.61-7.87-5.48-7.87C257.55,493.88,255.92,498.05,255.92,501.92z"/>
		<path d="M271.09,493.37c0.95-0.24,2.25-0.36,3.34-0.36c2.07,0,3.39,0.47,4.31,1.39c0.75,0.75,1.19,1.91,1.19,3.15
			c0,2.37-1.31,3.82-3.25,4.54v0.05c1.38,0.42,2.21,1.73,2.63,3.84c0.55,2.7,0.87,3.92,1.19,4.55h-1.23
			c-0.27-0.51-0.62-2.06-1.06-4.28c-0.51-2.52-1.52-3.63-3.74-3.7h-2.19v7.98h-1.19V493.37z M272.28,501.59h2.23
			c2.52,0,4.21-1.51,4.21-3.84c0-2.57-1.66-3.75-4.33-3.75c-0.97,0-1.7,0.09-2.11,0.2V501.59z"/>
		<path d="M290.51,501.87h-6.25v7.63h7.03v1.02h-8.22v-17.4h7.83v1.02h-6.64v6.71h6.25V501.87z"/>
		<path d="M303.87,508.7c0.84,0.58,2.08,1.02,3.34,1.02c2.41,0,3.9-1.46,3.9-3.6c0-1.91-1.02-3.07-3.16-4.08
			c-2.19-0.89-4.12-2.35-4.12-4.8c0-2.54,2.02-4.36,4.76-4.36c1.45,0,2.58,0.4,3.1,0.77l-0.47,1.01c-0.45-0.32-1.45-0.76-2.75-0.76
			c-2.52,0-3.46,1.73-3.46,3.09c0,1.99,1.12,2.92,3.32,3.96c2.6,1.28,3.96,2.64,3.96,5.06c0,2.63-1.85,4.74-5.16,4.74
			c-1.37,0-2.95-0.47-3.71-1.06L303.87,508.7z"/>
		<path d="M316.59,493.12v10.91c0,4.15,1.82,5.71,4.09,5.71c2.54,0,4.27-1.72,4.27-5.71v-10.91h1.19v10.8c0,5.1-2.6,6.86-5.53,6.86
			c-2.72,0-5.21-1.61-5.21-6.62v-11.04H316.59z"/>
		<path d="M330.07,493.34c0.91-0.19,2-0.34,3.35-0.34c1.86,0,3.31,0.51,4.21,1.4c0.8,0.8,1.28,1.95,1.28,3.43
			c0,1.47-0.38,2.53-1.08,3.38c-1.04,1.31-2.81,2-4.79,2c-0.67,0-1.25-0.01-1.78-0.16v7.47h-1.19V493.34z M331.26,502
			c0.5,0.15,1.11,0.2,1.82,0.2c2.81,0,4.61-1.45,4.61-4.27c0-2.5-1.63-3.92-4.34-3.92c-0.95,0-1.67,0.09-2.09,0.18V502z"/>
		<path d="M349.39,501.87h-6.25v7.63h7.03v1.02h-8.22v-17.4h7.83v1.02h-6.64v6.71h6.25V501.87z"/>
		<path d="M352.92,493.37c0.95-0.24,2.25-0.36,3.34-0.36c2.07,0,3.39,0.47,4.31,1.39c0.75,0.75,1.19,1.91,1.19,3.15
			c0,2.37-1.31,3.82-3.25,4.54v0.05c1.38,0.42,2.21,1.73,2.63,3.84c0.55,2.7,0.87,3.92,1.19,4.55h-1.23
			c-0.27-0.51-0.62-2.06-1.06-4.28c-0.51-2.52-1.52-3.63-3.74-3.7h-2.19v7.98h-1.19V493.37z M354.12,501.59h2.23
			c2.52,0,4.21-1.51,4.21-3.84c0-2.57-1.66-3.75-4.33-3.75c-0.97,0-1.7,0.09-2.11,0.2V501.59z"/>
		<path d="M366.1,493.12v17.4h-1.19v-17.4H366.1z"/>
		<path d="M382.52,501.7c0,6.24-3.28,9.08-6.86,9.08c-3.67,0-6.64-3.08-6.64-8.84c0-5.92,3.08-9.08,6.88-9.08
			C379.64,492.86,382.52,495.97,382.52,501.7z M370.27,501.92c0,3.75,1.8,7.85,5.5,7.85c3.71,0,5.51-3.99,5.51-8.01
			c0-3.57-1.61-7.87-5.48-7.87C371.9,493.88,370.27,498.05,370.27,501.92z"/>
		<path d="M385.44,493.37c0.95-0.24,2.25-0.36,3.34-0.36c2.07,0,3.39,0.47,4.31,1.39c0.75,0.75,1.19,1.91,1.19,3.15
			c0,2.37-1.31,3.82-3.25,4.54v0.05c1.38,0.42,2.21,1.73,2.63,3.84c0.55,2.7,0.87,3.92,1.19,4.55h-1.23
			c-0.27-0.51-0.62-2.06-1.06-4.28c-0.51-2.52-1.52-3.63-3.74-3.7h-2.19v7.98h-1.19V493.37z M386.63,501.59h2.23
			c2.52,0,4.21-1.51,4.21-3.84c0-2.57-1.66-3.75-4.33-3.75c-0.97,0-1.7,0.09-2.11,0.2V501.59z"/>
		<path d="M410.69,494.13h-4.95v-1.01h11.09v1.01h-4.95v16.39h-1.19V494.13z"/>
		<path d="M419.91,493.12v7.69h8.43v-7.69h1.19v17.4h-1.19v-8.69h-8.43v8.69h-1.19v-17.4H419.91z"/>
		<path d="M435.39,504.46l-1.92,6.06h-1.21l5.64-17.4h1.15l5.63,17.4h-1.23l-1.95-6.06H435.39z M441.17,503.46l-1.81-5.54
			c-0.39-1.25-0.62-2.23-0.87-3.34h-0.08c-0.23,1.14-0.5,2.15-0.86,3.31l-1.82,5.57H441.17z"/>
		<path d="M447.28,510.52v-17.4h1.15l5.8,9.89c1.25,2.18,2.23,4.01,3.02,5.83l0.05-0.03c-0.18-2.63-0.19-4.54-0.19-7.33v-8.37h1.15
			v17.4h-1.14l-5.76-9.92c-1.14-1.98-2.19-3.81-3.03-5.84l-0.07,0.03c0.15,2.31,0.17,4.19,0.17,7.37v8.36H447.28z"/>
		<path d="M472.51,493.37c0.89-0.22,1.97-0.36,3.15-0.36c1.98,0,3.33,0.45,4.23,1.36c0.69,0.69,1.06,1.64,1.06,2.87
			c0,1.82-1.21,3.28-2.93,3.89v0.06c1.62,0.38,3.56,1.75,3.56,4.49c0,1.42-0.49,2.54-1.27,3.36c-1.09,1.17-2.86,1.61-5.02,1.61
			c-1.31,0-2.2-0.09-2.79-0.15V493.37z M473.71,500.74h2.09c2.32,0,3.93-1.46,3.93-3.43c0-2.25-1.54-3.3-4.13-3.3
			c-0.96,0-1.54,0.08-1.89,0.17V500.74z M473.71,509.5c0.43,0.09,1.05,0.13,1.84,0.13c2.61,0,4.8-1.09,4.8-3.93
			c0-2.76-2.23-3.97-4.82-3.98h-1.82V509.5z"/>
		<path d="M491.96,501.87h-6.25v7.63h7.03v1.02h-8.22v-17.4h7.83v1.02h-6.64v6.71h6.25V501.87z"/>
		<path d="M495.5,493.12h7.83v1.02h-6.64v6.96h6.11v1.02h-6.11v8.39h-1.19V493.12z"/>
		<path d="M518.79,501.7c0,6.24-3.28,9.08-6.86,9.08c-3.67,0-6.64-3.08-6.64-8.84c0-5.92,3.08-9.08,6.88-9.08
			C515.91,492.86,518.79,495.97,518.79,501.7z M506.54,501.92c0,3.75,1.8,7.85,5.5,7.85c3.71,0,5.51-3.99,5.51-8.01
			c0-3.57-1.61-7.87-5.48-7.87C508.17,493.88,506.54,498.05,506.54,501.92z"/>
		<path d="M521.71,493.37c0.96-0.24,2.25-0.36,3.34-0.36c2.07,0,3.39,0.47,4.31,1.39c0.75,0.75,1.19,1.91,1.19,3.15
			c0,2.37-1.31,3.82-3.25,4.54v0.05c1.38,0.42,2.21,1.73,2.63,3.84c0.55,2.7,0.87,3.92,1.19,4.55h-1.23
			c-0.27-0.51-0.62-2.06-1.06-4.28c-0.51-2.52-1.52-3.63-3.74-3.7h-2.19v7.98h-1.19V493.37z M522.9,501.59h2.23
			c2.52,0,4.21-1.51,4.21-3.84c0-2.57-1.66-3.75-4.33-3.75c-0.97,0-1.7,0.09-2.11,0.2V501.59z"/>
		<path d="M541.13,501.87h-6.25v7.63h7.03v1.02h-8.22v-17.4h7.83v1.02h-6.64v6.71h6.25V501.87z"/>
	</g>
</g>
<g>
	<path d="M104.49,501.91c42.55,0,85.11,0,127.66,0"/>
	<g>
		<g>
			<g>
				<g>
					<path d="M232,499.48c0.19,0.04,0.12-0.38,0.15-0.46C231.83,499.12,232.01,499.59,232,499.48z"/>
					<polygon points="228.89,500.43 228.94,500.26 228.48,500.68 					"/>
					<path d="M225.98,500.42c0.28,0.71,1.05-0.12,1.57,0.14l0.09,0.16l0.23-0.57C227.24,500.24,226.42,500.62,225.98,500.42z"/>
					<path d="M224.43,498.88c0.1,0.28-0.34,0.24,0.36,0.09c-0.04-0.03-0.05-0.05-0.07-0.07C224.66,498.9,224.57,498.9,224.43,498.88
						z"/>
					<path d="M224.72,498.9C225.03,498.88,224.52,498.66,224.72,498.9L224.72,498.9z"/>
					<path d="M223.31,499.06l0.4-0.25c-0.08-0.16-0.44-0.2-0.31-0.32C222.99,498.62,223.07,498.79,223.31,499.06z"/>
					<path d="M222.93,499.58l0.21-0.11C223.1,499.4,223.04,499.38,222.93,499.58z"/>
					<path d="M223.58,499.25l-0.44,0.22c0.06,0.12,0.06,0.35,0.2-0.08C223.3,499.6,223.39,499.4,223.58,499.25z"/>
					<path d="M223.83,499.36c0.23,0.16,0.52,0.25,0.11,0.5C224.72,499.76,224.6,499.26,223.83,499.36z"/>
					<path d="M225.83,501.16l0.3,0.21l0.26-0.24C226.26,501.25,225.81,500.94,225.83,501.16z"/>
					<path d="M220.79,498.69c-0.03,0.15,0.14,0.4,0.17,0.6l0.3-0.17C221.11,499.01,220.82,498.91,220.79,498.69z"/>
					<path d="M220.96,499.29l-0.45,0.26C220.91,499.58,220.99,499.45,220.96,499.29z"/>
					<polygon points="222.85,500.37 223.59,499.82 222.71,500.38 					"/>
					<polygon points="219.09,498.67 219.34,498.32 218.89,498.85 					"/>
					<path d="M217.96,498.73c0.19-0.29-0.26-0.49-0.06-0.67c-0.31,0.05-0.57,0.3-0.81,0.53
						C217.35,498.46,217.62,498.49,217.96,498.73z"/>
					<path d="M216.7,498.91c0.13-0.07,0.26-0.19,0.4-0.33C216.96,498.65,216.83,498.75,216.7,498.91z"/>
					<path d="M219.75,499.47c-0.03-0.09-0.1-0.33-0.35-0.43l0.18,0.43C219.63,499.47,219.69,499.47,219.75,499.47z"/>
					<path d="M219.59,499.48l-0.01-0.01c-0.19-0.01-0.32-0.02-0.38-0.02C219.25,499.44,219.36,499.45,219.59,499.48z"/>
					<path d="M219.8,499.47c-0.02,0-0.03,0-0.04,0C219.77,499.51,219.78,499.53,219.8,499.47z"/>
					<path d="M221.69,499.98c-0.26,0.24-0.81,0.5-0.28,0.86C221.59,500.55,221.29,500.34,221.69,499.98z"/>
					<path d="M220.02,500.01l0.47,0.1c-0.01-0.11-0.09-0.28,0.04-0.4L220.02,500.01z"/>
					<polygon points="219.78,500.14 220.02,500.01 219.84,499.97 					"/>
					<path d="M217.51,499.31c-0.2,0.19-0.43,0.2-0.68,0.23c0.27,0.08,0.55,0.13,0.82,0.13C217.69,499.54,217.8,499.3,217.51,499.31z
						"/>
					<path d="M218.52,499.43c-0.01,0.01-0.03,0.01-0.05,0.02C218.5,499.49,218.52,499.5,218.52,499.43z"/>
					<path d="M214.34,499.54c0.01,0.02,0.03,0.05,0.04,0.08c0-0.02,0.01-0.05,0.01-0.07L214.34,499.54z"/>
					<path d="M217.69,499.75c0.2,0.08,0.33-0.02,0.44-0.15c-0.15,0.04-0.31,0.07-0.49,0.07
						C217.63,499.73,217.63,499.77,217.69,499.75z"/>
					<path d="M216.01,499.11c0.11,0.09,0.23,0.17,0.35,0.23C216.26,499.21,216.04,499,216.01,499.11z"/>
					<path d="M218.41,499.34c0.01-0.01,0.02-0.01,0.03-0.02C218.37,499.23,218.38,499.27,218.41,499.34z"/>
					<path d="M218.41,499.34c-0.1,0.06-0.19,0.17-0.27,0.26c0.12-0.03,0.24-0.08,0.34-0.14
						C218.45,499.42,218.42,499.38,218.41,499.34z"/>
					<path d="M213.59,502.28c0.04-0.4,0.57-0.76,1.03-0.34c0.45-0.3,0.16-1.6-0.24-2.33c-0.01,0.17-0.01,0.33-0.48,0.57
						c0.16,0.22,1.04,0.51,0.64,0.86c-0.62,0.2-0.51-0.14-0.81-0.35c0.26,0.49-0.79,0.72-0.65,1.44l0.54-0.26
						C213.63,502,213.44,502.18,213.59,502.28z"/>
					<path d="M215.27,499.66l0.19-0.05c-0.22-0.07-0.38-0.23-0.67-0.54c-0.32,0.19-0.39,0.34-0.41,0.47l0.95,0.06L215.27,499.66z"/>
					<path d="M216.33,499.61c-0.15,0.43-0.61,0.61-0.33,1.08c0.57-0.03,0.4-0.36,0.73-0.55c-0.91,0.11,0.26-0.24-0.4-0.48
						c0.18-0.07,0.34-0.1,0.49-0.11c-0.16-0.05-0.32-0.12-0.47-0.2c0.01,0.01,0.01,0.02,0.02,0.03l0,0c0,0,0,0,0,0.01
						c0.04,0.05,0.05,0.09,0.01,0.06c0,0.01-0.01,0.01-0.02,0.01C216.37,499.5,216.35,499.55,216.33,499.61
						c-0.26-0.09-0.04-0.11,0.04-0.16c0-0.02,0.01-0.04,0.01-0.06c0,0,0,0,0-0.01l-0.91,0.24
						C215.66,499.67,215.9,499.66,216.33,499.61z"/>
					<path d="M220.92,501.77c-0.03-0.04-0.03-0.07-0.03-0.1C220.83,501.72,220.81,501.76,220.92,501.77z"/>
					<path d="M220.54,501.51c0.07-0.06,0.12-0.23,0.34-0.19c0.19,0.13,0,0.21,0.01,0.35c0.13-0.11,0.46-0.31,0.05-0.52l-0.06,0.06
						c-0.37-0.15-0.84-0.69-0.78-0.74C220.2,500.85,220.3,501.13,220.54,501.51z"/>
					<path d="M218.41,500.67l-0.76,0.21l0.39,0.37l-0.02-0.22C218.45,501.12,218.36,500.84,218.41,500.67z"/>
					<polygon points="214.26,499.33 214.36,498.87 213.92,499.51 					"/>
					<polygon points="213.27,499.38 213.3,498.98 213.04,499.22 					"/>
					<path d="M157.46,504.29l-0.22,0.11C157.34,504.37,157.41,504.33,157.46,504.29z"/>
					<path d="M159.08,504.32l0.04-0.19C159.04,504.23,159.01,504.31,159.08,504.32z"/>
					<path d="M188.98,499.42c-0.33-0.37-0.69-0.94-0.65-0.5l0.1,0.43C188.65,499.28,188.83,499.33,188.98,499.42z"/>
					<path d="M172.34,502.01c0.03,0.04,0.06,0.09,0.1,0.13c0.08-0.15,0.15-0.29,0.22-0.42
						C172.56,501.82,172.46,501.91,172.34,502.01z"/>
					<path d="M172.11,503.81l-0.43-0.28C171.78,503.63,171.92,503.72,172.11,503.81z"/>
					<path d="M148.62,504.75l-0.26,0.44C148.76,505.19,148.58,504.97,148.62,504.75z"/>
					<path d="M203.14,499.54c-0.28-0.17-0.5-0.24-0.7-0.26C202.77,499.53,203.05,499.9,203.14,499.54z"/>
					<path d="M158.09,499.69c-0.14,0.08-0.2,0.17-0.19,0.26C158.04,499.88,158.12,499.79,158.09,499.69z"/>
					<path d="M201.62,499.28c0.05,0.04,0.1,0.07,0.15,0.1c0.21-0.07,0.41-0.13,0.66-0.1C202.19,499.09,201.9,498.98,201.62,499.28z"
						/>
					<path d="M116.55,504.39c-0.02-0.02-0.05-0.03-0.07-0.05C116.47,504.4,116.5,504.4,116.55,504.39z"/>
					<path d="M107.21,500.01c0.09-0.03,0.24-0.03,0.38-0.03C107.52,499.95,107.4,499.95,107.21,500.01z"/>
					<path d="M209.29,499.19C209.5,499.16,209.32,499.14,209.29,499.19L209.29,499.19z"/>
					<path d="M210.31,500.91c-0.04,0.05-0.08,0.11-0.08,0.21C210.24,501.01,210.27,500.95,210.31,500.91z"/>
					<path d="M199.53,501.98c-0.01,0-0.01,0-0.02,0C199.58,502.06,199.57,502.05,199.53,501.98z"/>
					<path d="M209.6,499.39c-0.08-0.05-0.17-0.1-0.27-0.13C209.38,499.29,209.46,499.33,209.6,499.39z"/>
					<path d="M209.56,499.18c0.07,0.02,0.13,0.03,0.18,0.04C209.77,499.15,209.75,499.11,209.56,499.18z"/>
					<path d="M208.99,499.21c0.12-0.01,0.23,0.01,0.34,0.05c-0.04-0.03-0.06-0.05-0.05-0.07
						C209.23,499.2,209.14,499.21,208.99,499.21z"/>
					<path d="M133.73,503.23c-0.01-0.01-0.03-0.02-0.04-0.04C133.47,503.37,133.57,503.34,133.73,503.23z"/>
					<path d="M183.52,503.93c0.01,0,0.01-0.02,0.02-0.02c-0.01,0-0.02-0.01-0.03-0.02L183.52,503.93z"/>
					<path d="M182.76,504.25c0.32-0.54,0.5-0.47,0.75-0.36l-0.25-1.25L182.76,504.25z"/>
					<path d="M153.58,504.41l0.53,0.39c-0.64,0.64-1.1,0.42-0.6,0.97c0.07-1.36,2.06-0.14,2.13-1.5l0.35,0.29
						c-0.1-0.01-0.12,0.07-0.21,0.05c0.68,0.65,0.5-0.98,1.38-0.79c0.3,0.1,0.52,0.3,0.31,0.46l0.68-0.34
						c0.2,0.03,0.15,0.26-0.05,0.24l1.04-0.11l-0.01,0.04c0.15-0.21,0.48-0.54,0.65-0.68c0.26,0.19-0.13,0.14-0.06,0.31l0.57-0.33
						c0.23,0.35-0.24,0.69-0.64,0.64c0.54,1.36,0.48-0.34,1.63,0.45l-0.54,0.17c0.35,0.77,0.77,0.49,1.38,0.97
						c-0.15-0.25-1.22-1.21-0.6-1.55c0.18,0.1,0.41,0.15,0.74-0.12c0,0.48,0.33,0.36,0.74,0.34l-0.03,0.64
						c0.44-0.18,0.41-0.51,0.67-0.8c0.49,0.06,0.6,0.56,0.71,0.98c0.79,0.1-0.55-0.79,0.39-0.91c0.66,0.24,1.12-0.02,1.91-0.4
						c0.46,0.22-0.08,0.39,0.08,0.57l0.41-0.51c0.1,0.01,0.07,0.17,0.05,0.25c0.34-0.2,0.03-0.64,0.57-0.81
						c0.15-0.7,1.11,1.03,1.78,0.23c0.16,0.18-0.08,0.39-0.03,0.64c0.92-0.52,0.79-0.38,1.54-1.09l0.64,0.42
						c-0.47-0.48,0.13-1.05,0.66-1.52c-0.17-0.23-0.31-0.43-0.41-0.53l0.84-0.34c0.1,0.11,0.02,0.32-0.12,0.59
						c0.06-0.05,0.11-0.11,0.15-0.15c0.3,0.24,0.15,0.61-0.07,0.96c-0.1-0.13-0.2-0.26-0.3-0.39c-0.21,0.39-0.4,0.82-0.36,1.19
						c0.05-0.07,0.16-0.14,0.28-0.17c-0.05,0.11-0.09,0.2-0.06,0.26c0.03,0.07,0.12-0.07,0.25-0.24l0.19,0.71l0.05-0.28l1.1,0.45
						c0.79-0.72,1.48-1.77,2.73-2.07c-0.31,0.52-0.07,0.85-0.08,1.47c-0.34-0.66-0.97,0.28-1.62,0.15c0.34,0.07,0.26,0.36,0.18,0.47
						l1.16-0.6c-0.03,0.51,0.25,0.38,0.55,0.59c-0.23-1,0.86-0.67,1.33-0.97c0.03,0.34-0.08,0.68-0.66,0.6
						c0.63,0.75,0.82-1.18,1.44-0.54c-0.14,0.01-0.22-0.04-0.27,0.13c0.33-0.3,1.13-0.06,0.94,0.23l-0.14,0.01
						c0.93,0.12,2.84,0.01,2.97-0.84c0.01,0.11-0.12,1.03-0.18,1.2l1.66-2.86c-0.15,0.73,0.42,2.47-0.36,2.88
						c0.22,0.1,0.5,0.23,0.96-0.03c-0.15-0.1-0.38-1.06-0.17-1.12c0.57,0.81,0.39,0.43,1.09,1.13c-0.23-0.16,0.03-1.3,0.38-1.27
						c-0.06,0.17,0.03,1.13-0.1,1.25l0.89-1.12c-0.22,0.2-0.04,0.95,0.16,1.27c-0.09-0.22,0.77,0.02,1.01-0.09l-0.38-0.26
						c1.01,0.17,0.99-1.58,1.99-1.52c-0.12,0.23-0.3,1.43,0.21,1.57c0.23-0.58,1.03-2.77,1.92-3.21l0.17,0.33l0.68-0.38
						c-0.42,0.87-1.61,2.69-2.25,3.4c0.38,0.26,0.1,0.39,0.67,0.36c0.2,0.31-0.31,0.47-0.47,0.49l1.31,0.2
						c-0.06-0.67,1-0.67,0.95-1.23l-1.43,0.7c-0.06-0.67,0.83-1.91,1.76-1.79c0.24,0.27-0.18,1.2-0.16,1.42
						c0.12-0.23,0.88-0.44,0.97-0.28l-0.4,0.36c0.52,0.25,0.85-0.89,1.47-0.25c0.21,0.04,0.64,0.87,0.68,0.47
						c-0.35-0.77-0.42-3.14-0.19-3.72c0.08,0.05,1.13,0.73,1.37,1.11c0.35,0.6-0.53,1.43-0.23,1.95c0.01-0.18,0.21-0.41,0.29-0.48
						c0.23,0.16-0.09,0.57,0.4,0.49c0.08-0.68,1,0.06,0.23-0.58c0.48-0.19,0.51,0.14,1.07,0.11c-0.18-0.44,0.51-1.5,0.99-1.69
						c-0.03,0.17,0.08,0.4,0.13,0.5c0.98,0.06,1.51,0.37,2.43,0.38c0.08,0.17,0.53,0.36,0.34,0.66c0.13-0.12,0.25-0.35,0.54-0.37
						c0.55,0.59-0.63,0.09-0.21,0.8c0.04-0.4,0.73-0.55,1.13-0.79c-0.12-0.61-0.93-0.12-1.33,0.13c0-0.84,0.7-1.73,1.66-2.12
						c0.76-0.21,0.33,0.55,0.46,0.43c1.43,0.15,1.22-1.47,2.41-0.86c0.47,0.54,0.02,1.07,0.13,1.46c-0.62,0.2-0.95-0.34-1.37-0.32
						l0.52,0.25c-0.2,0.18-0.61,0.31-0.84,0.16c0.4,0.48,2.42,0.09,3.52,0.54c0.2-0.18,0.53-0.37,0.37-0.58l-0.35,0.08
						c-0.32-0.43,0.66-0.6,0.22-0.8c0.47-0.3,0.99-0.78,1.65-0.54l0.12,0.61c-0.01-0.18-0.43-0.37-0.62-0.18
						c0.28-0.27,1.01,0.83,1.31,0.03l-0.46-0.42c0.47-0.31,1.05-0.96,1.64-0.77c-0.27-0.61-0.13,0.07-0.55-0.64
						c0.36,0.88-1.5-0.04-0.92,0.89c-0.43-0.82-0.74-0.35-1.3-1.05c0.02,0.2,0.2,0.39-0.29,0.29c-0.02,0.06-0.07,0.13-0.11,0.18
						c-0.01-0.01-0.02-0.01-0.03-0.02c0.01,0.01,0.02,0.02,0.03,0.02c-0.02,0.03-0.02,0.04,0.01,0.01c0.12,0.09,0.21,0.19,0.25,0.31
						c-0.24,0.46-1.02,0.45-1.29,0.69c-0.29-0.1,0.12-0.23-0.04-0.45l-0.39,0.36c-0.04-0.45-0.77-0.75-0.09-1.01l-0.62-0.02
						c-0.36-0.25-0.86-0.35-1.17-0.16c-0.29-0.1-0.74,0.5-0.48,0.15l-0.97,0.28l-0.01-0.11c-0.96-0.06-1.97,0.74-3.06-0.07
						c-0.32,0.11-0.65,0.25-1.19,0.12l-0.1-0.39c-0.41,0.14-1.24-0.39-1.42,0.02c-0.45-1.05-2.01-0.23-2.73-0.41l-0.03,0.51
						c-0.5-0.03-0.98,0.12-1.6,0.32l0.04,0.45c-0.54,0.37-1.38-0.32-2.22-0.27c0.06-0.17,0.27-0.13,0.42-0.02
						c-1.01-1.01-2.13,0.74-3.05,0c-0.23,0.16-0.39,0.11-0.55-0.01c0.02,0,0.04-0.01,0.06-0.02c-0.02-0.01-0.06-0.01-0.09-0.01
						c-0.1-0.08-0.2-0.17-0.32-0.24c0.1,0.11,0.19,0.2,0.27,0.24c-0.18,0.01-0.44,0.07-0.71,0.18l-0.11-0.48
						c-0.02,0.01-0.04,0.01-0.06,0.01c-0.26-0.18-0.21,0.23-0.07,0.59c-0.13,0.08-0.25,0.17-0.35,0.29
						c-0.21-0.78-0.69,0.26-0.97-0.57c-0.18,0.4-1.32,0.3-1.46,1.15c-0.01-0.11-0.09-0.16,0.06-0.17c-0.29-0.1-0.58-0.19-0.85,0.05
						l-0.12-0.61l-0.64,0.82c-0.39-0.37-0.55-0.59-0.16-1.06c-0.93,0.72-0.75,0.27-1.54,0.99l0.04-0.4
						c-0.28,0.02-0.73,0.55-0.9,0.22c-0.63-0.75-3.13-0.1-4.75-0.8c0.31,1.17-0.75-0.52-0.82,0.38c-0.09-0.28-0.32-0.43-0.06-0.67
						c-0.83,0.27-1.24-0.44-1.82,0.32c-0.09-0.28,0.18-0.4,0.09-0.57c-0.07,0.06-0.26,0.24-0.35,0.08
						c-0.08-0.16,0.12-0.23,0.25-0.35c-0.85,0.05-0.93,0.9-0.99,1.69c-0.43-0.38-0.64-0.32-0.95,0.2c-0.15-0.26-0.4-0.53,0.13-0.63
						c-0.3-0.04-1.81-0.38-1.84,0.26c-0.09-0.16-0.41-0.05-0.49,0.03c-0.66-0.04-0.72-0.1-1.37-0.04l0.18,0.1
						c-0.26,0.77-0.54,0.17-1.07,0.26l0.01-0.08c-1.2-0.56-0.52,0.27-1.71-0.37l0.06,0.48c-0.11,1.03-1.05-0.61-1.74-0.21l0.25,0.27
						c-0.38,0.35-1.05-1.4-1.43-1.53c-0.08-0.09,0.13-0.14,0.25-0.21c-0.99-0.61-0.13,0.63-0.87,0.77
						c-0.14-0.34,0.18-0.86-0.32-0.92c-0.25-0.27-1.44,1.1-2.12,0.45c0.15,0.26,0.3,0.52-0.05,0.72c-0.53,0.09-1.42-0.99-1.89-0.16
						c-0.07-0.07-0.09-0.14-0.09-0.2c-0.4,0.21-1.3,0.35-1.55,0.8c-0.37-1.66-2.5,0.81-2.49-0.72l-1.23,0.08l0.03-0.16
						c-0.79-0.1-1.07,0.27-1.35,0.63c-0.18-0.1-0.05-0.25-0.03-0.33c-1.15-0.31-1.27-0.24-2.23,0.52l-0.1-0.5
						c-0.26,0.29-1.67-0.78-2.8-0.2c0.01-0.06,0.03-0.15,0.12-0.22c-1.27,0.58-3.05-1.38-3.51,0.43l-0.84,0.44
						c1.09,0.14-0.16,0.78,0.29,1.08c-0.43,0.11-1.1-0.54-0.58-0.64l0.08,0.09c0.19-0.94-1.35-0.33-1.32-0.97
						c-2.14,0.05-4.22-0.47-6.22-0.51l0.23,0.73l-0.7-0.04c-0.18-0.17-0.25-0.57,0.25-0.54c-0.26-0.41-0.84,0.35-0.85,0.51
						c-0.98-0.3,0.38-0.85,0.08-0.87l-0.41,0.05l0.09,0.09c-0.33,0.3-0.36,0.62-0.96,0.58c-0.38-0.15-0.19-0.45-0.34-0.48
						c0-0.05-0.05-0.08-0.23-0.02l-0.88-0.06l0.35,0.58c-0.39,0.28-0.83-0.03-0.42,0.62c-0.6-1.01-3.28-0.36-3.65-0.68
						c-0.55,0.42-1.09,0.41-1.75,0.36c0.17,0.12,0.27,0.77-0.31,0.69c0.21-1.34-1.06-0.58-1.52-1.55c0.42,0.64-1.64,0.16-0.99,1.07
						c-0.48-0.11-0.03-0.5-0.39-0.82c-1.14,0.52-2.52-0.34-3.94-0.16c-0.02,0.18,0.21,0.44-0.09,0.71l-0.75-0.88
						c-0.28,0.09-0.26,1.02-0.77,0.4c0.07,0.15,0.18,0.37-0.01,0.43c-2.77-0.86-5.66,0.7-8.48-0.91c0.38,0.34,0.13,0.37-0.16,0.39
						c0.19,0.08,0,0.43,0.03,0.67l-1.18-0.66c-0.21,0.66-1.26,0.04-1.39,0.68l0.37-0.11c-0.5,0.75,0.69,1.66,0.62,2.62
						c0.56-0.85,1.46,1.26,2.38,0.04c0.2,0.2-0.17,0.31-0.06,0.53c0.23-0.41,0.51-0.5,1.03-0.31l-0.06,0.1
						c1.45-0.1,2.08,0.3,3.71,0.57l-0.12-0.47c0.35,0.06,0.42,0.21,0.59,0.33c0.4-0.72-0.98-0.04-0.62-0.83
						c0.47,0.96,2.47,0.01,2.79,1.11c0.54,0.01-0.16-0.55,0.38-0.54l0.14,0.3l0.14-0.38c0.35,0.06,0.53,0.43,0.55,0.68
						c-0.09-0.03-0.24,0.07-0.34,0.09c0.46,0.35,1.29-0.12,1.45-0.01l-0.52-0.18c1.47-0.28,3.27,0.11,4.69-0.49l-0.11-0.22
						c1.09-0.41,0.87,0.25,2.06,0.05l-0.04,0.05c0.24-0.22,0.56-0.33,0.88-0.31c-0.3,0.26,0.57,0.51,0.17,0.8
						c1.18-0.44,0.58-0.35,1.36-1.18l0.18,0.37c0.27-0.34,0.29-0.51,0.88-0.61c-0.49,0.32,0.38,0.57-0.17,0.99
						c1.25,0.81,1.86-0.82,2.43,0.37c0.57-1.03-1.08-0.57-0.76-0.79c-0.27-0.34,0.47-0.77,0.87-0.66c0.4,0.02,0.68,1.31,1.68,1.29
						c-0.1,0-0.11,0.07-0.21,0.07c0.38,0.26,0.74-0.35,1.2,0.07c0.26-0.62,0.6,0.04,0.67-0.76l-0.92,0.18
						c0.52-0.21,1.01-1.13,1.87-0.68c-0.07,0.16-0.32,0.37-0.5,0.49c0.25,0.23,0.48-0.15,0.75,0.08c-0.07,0.79-1.12,0.17-1.68,0.78
						c0.27,0.33,1.06-0.57,0.78,0.28c0.4-1.09,0.99,0.14,1.67-0.7l-0.04,0.47c0.11-0.07,0.33-0.3,0.53-0.29l-0.36,0.62
						c0.55-0.52,1.06,0.46,1.59,0.17c-1.11,0.01-0.25-0.57-0.72-0.92c1.36-0.64,0.78,1.24,2.31,1.01c-0.21,0.07-0.78-0.29-0.45-0.5
						c0.29,0.1,0.67,0.28,0.85,0.53c1.01-0.1-0.16-0.49,0.28-0.78c0.34,0.58,0.5-0.24,0.94-0.42l0,0.48
						c1.15,0.31,0.31-1.01,1.34-0.63l-0.44,0.67l0.54-0.17l-0.11,0.55c0.59-0.41,0.77-0.3,1.35-0.15c-0.13-0.34,0.08-0.88,0.59-0.89
						c0.35,0.29-0.2,0.46,0.53,0.39c-0.16,0.3-0.34,0.68-0.66,0.24c-0.03,0.16-0.16,0.3-0.19,0.46c0.38,0.33,0.94,0.08,1.2,0.07
						c-0.1-0.02-0.22-0.04-0.28-0.11l1.05-0.67c0.17,0.18,0.03,0.33-0.1,0.47c0.21-0.05,0.36-0.27,0.67-0.32
						c-0.08,0.39-0.06,0.8-0.5,0.98l1-0.44c0.07,0.17,0.51,0.47,0.38,0.61c0.55,0.23,1.36-0.76,2.09-0.46
						c0.04-0.08,0.11-0.15,0.27-0.21c0.69,0.09,1.3,0.57,2.12,0.03l0.46,0.7c0.64-0.16-0.63-0.89,0.44-1.15
						c0.76-0.22,0.28,0.6,0.55,0.8c0.38-0.35,1.03-1.08,1.72-0.5C153.98,504.47,153.8,504.36,153.58,504.41z M161.49,504.1
						c-0.15,0.1-0.46,0.41-0.57,0.13C161.09,503.68,161.23,503.94,161.49,504.1z M173.51,502.94c-0.11,0.16-0.29,0.08-0.49-0.1
						C173.16,502.8,173.32,502.82,173.51,502.94z M206.99,499.58c-0.01,0.01-0.01,0.01-0.02,0.02
						C206.63,499.42,206.75,499.49,206.99,499.58z M207.7,499.79c0.07-0.07,0.07-0.13,0.04-0.2c-0.05,0.12-0.21,0.13-0.39,0.1
						C207.39,499.81,207.49,499.9,207.7,499.79z M131.49,499.98l0.14,0.13C131.32,500.25,131.4,500.12,131.49,499.98z"/>
					<path d="M172.14,503.6c-0.04-0.08-0.06-0.17-0.07-0.26C172.02,503.42,172.02,503.51,172.14,503.6z"/>
					<path d="M148.66,504.67c-0.01,0-0.02,0-0.02-0.01c-0.01,0.03-0.02,0.06-0.02,0.09L148.66,504.67z"/>
					<path d="M196.7,503.88c-0.15-0.07-0.23-0.16-0.28-0.25C196.42,503.75,196.48,503.85,196.7,503.88z"/>
					<path d="M211.46,498.97L211,499.1c0.22-0.02,0.3,0.08,0.41,0.16C211.4,499.14,211.32,498.98,211.46,498.97z"/>
					<path d="M215.4,501.96c0.07-0.06,0.14-0.01,0.21-0.07l-0.02-0.22C215.31,501.68,215.11,501.86,215.4,501.96z"/>
					<path d="M211.88,500.58c0.04,0.41,0.32,0.27,0.64,0.19c-0.02,0-0.04,0-0.06,0C212.56,500.2,212.22,500.39,211.88,500.58z"/>
					<path d="M212.59,500.75c0.1-0.02,0.2-0.03,0.29-0.01C212.92,500.52,212.77,500.7,212.59,500.75z"/>
					<path d="M208.6,499.52c0.15,0.1,0.09-0.52,0.18-0.35C208.95,498.65,207.77,499.79,208.6,499.52z"/>
					<polygon points="212.14,501.91 212.02,501.41 211.84,501.82 					"/>
					<path d="M209.62,501.54l0.51,0.14c-0.01-0.08,0.06-0.13,0.14-0.17C209.95,501.5,209.61,501.4,209.62,501.54z"/>
					<path d="M210.27,501.51c0.16,0.01,0.32,0,0.41-0.08C210.59,501.43,210.4,501.45,210.27,501.51z"/>
					<polygon points="211.44,502.06 211.29,501.96 210.93,501.92 					"/>
					<path d="M204.15,501.45l-0.56,0.14c-0.06,0.17,0.09,0.28,0.3,0.21C204.03,501.68,204.24,501.61,204.15,501.45z"/>
					<path d="M205.83,502.82c-0.15-0.1-0.16-0.22-0.24-0.38l-0.02,0.62L205.83,502.82z"/>
					<path d="M204.21,502.97c-0.06,0.17-0.81,0.49-0.1,0.46C204.17,503.25,204.72,503.11,204.21,502.97z"/>
					<polygon points="195.85,502.18 195.99,502.17 195.97,501.15 					"/>
					<path d="M188.47,504.62c0.66,0.24,0.16-0.63,0.75-0.32c0.15-0.24-0.49-0.25-0.33-0.46
						C188.5,504.09,188.29,503.95,188.47,504.62z"/>
					<path d="M188.9,503.84c0.06-0.04,0.13-0.09,0.2-0.15C188.98,503.74,188.93,503.79,188.9,503.84z"/>
					<polygon points="105.66,499.47 105.23,499.25 105.51,499.6 					"/>
					<path d="M104.84,500.22l-0.1-0.65l-0.25,0.59C104.58,500.13,104.77,500.07,104.84,500.22z"/>
					<path d="M162.66,505.41l0.03-0.16c-0.07-0.17-0.16-0.18-0.36-0.21L162.66,505.41z"/>
					<polygon points="156.92,504.93 157.02,504.94 156.84,504.35 					"/>
					<path d="M152.11,505.67c0.2,0.02,0.43-0.11,0.63-0.08C152.3,505.7,152.05,504.94,152.11,505.67z"/>
				</g>
			</g>
		</g>
	</g>
</g>
<g>
	<path d="M552.56,503.96c40.17,0,80.34,0,120.51,0"/>
	<g>
		<g>
			<g>
				<g>
					<path d="M672.93,501.52c0.18,0.04,0.11-0.38,0.14-0.46C672.77,501.16,672.94,501.63,672.93,501.52z"/>
					<polygon points="669.99,502.47 670.05,502.3 669.61,502.72 					"/>
					<path d="M667.25,502.47c0.26,0.71,1-0.12,1.48,0.14l0.08,0.16l0.22-0.57C668.44,502.28,667.67,502.67,667.25,502.47z"/>
					<path d="M665.78,500.92c0.09,0.28-0.32,0.24,0.34,0.09c-0.03-0.03-0.04-0.05-0.06-0.07C666,500.94,665.92,500.94,665.78,500.92
						z"/>
					<path d="M666.06,500.94C666.35,500.92,665.87,500.71,666.06,500.94L666.06,500.94z"/>
					<path d="M664.73,501.1l0.38-0.25c-0.08-0.16-0.42-0.2-0.29-0.32C664.42,500.67,664.51,500.83,664.73,501.1z"/>
					<path d="M664.37,501.62l0.2-0.11C664.53,501.45,664.48,501.42,664.37,501.62z"/>
					<path d="M664.98,501.29l-0.42,0.22c0.06,0.12,0.06,0.35,0.19-0.08C664.72,501.65,664.8,501.44,664.98,501.29z"/>
					<path d="M665.22,501.4c0.21,0.16,0.49,0.25,0.11,0.5C666.06,501.8,665.95,501.3,665.22,501.4z"/>
					<path d="M667.11,503.2l0.29,0.21l0.25-0.24C667.52,503.29,667.09,502.98,667.11,503.2z"/>
					<path d="M662.35,500.73c-0.02,0.15,0.13,0.4,0.16,0.6l0.28-0.17C662.65,501.05,662.37,500.95,662.35,500.73z"/>
					<path d="M662.51,501.33l-0.42,0.26C662.47,501.62,662.53,501.5,662.51,501.33z"/>
					<polygon points="664.3,502.41 664.99,501.86 664.17,502.42 					"/>
					<polygon points="660.75,500.71 660.98,500.36 660.56,500.89 					"/>
					<path d="M659.68,500.77c0.18-0.29-0.24-0.49-0.06-0.67c-0.29,0.05-0.54,0.3-0.76,0.53C659.1,500.5,659.35,500.53,659.68,500.77
						z"/>
					<path d="M658.49,500.95c0.12-0.07,0.24-0.19,0.37-0.33C658.74,500.69,658.61,500.79,658.49,500.95z"/>
					<path d="M661.37,501.51c-0.03-0.09-0.1-0.33-0.33-0.43l0.17,0.43C661.26,501.51,661.31,501.51,661.37,501.51z"/>
					<path d="M661.21,501.52l-0.01-0.01c-0.18-0.01-0.3-0.02-0.36-0.02C660.89,501.49,661,501.5,661.21,501.52z"/>
					<path d="M661.41,501.52c-0.02,0-0.03,0-0.04,0C661.39,501.56,661.4,501.57,661.41,501.52z"/>
					<path d="M663.19,502.02c-0.25,0.24-0.76,0.5-0.26,0.86C663.11,502.59,662.82,502.38,663.19,502.02z"/>
					<path d="M661.62,502.05l0.45,0.1c-0.01-0.11-0.09-0.28,0.03-0.4L661.62,502.05z"/>
					<polygon points="661.4,502.18 661.62,502.05 661.45,502.01 					"/>
					<path d="M659.26,501.35c-0.19,0.19-0.4,0.2-0.64,0.23c0.26,0.08,0.52,0.13,0.77,0.13
						C659.42,501.58,659.53,501.34,659.26,501.35z"/>
					<path d="M660.21,501.47c-0.01,0.01-0.03,0.01-0.04,0.02C660.19,501.53,660.21,501.54,660.21,501.47z"/>
					<path d="M656.26,501.58c0.01,0.02,0.02,0.05,0.04,0.08c0-0.02,0.01-0.05,0.01-0.07L656.26,501.58z"/>
					<path d="M659.43,501.79c0.19,0.08,0.31-0.02,0.42-0.15c-0.14,0.04-0.3,0.07-0.46,0.07
						C659.37,501.77,659.37,501.81,659.43,501.79z"/>
					<path d="M657.83,501.15c0.1,0.09,0.21,0.16,0.33,0.23C658.07,501.25,657.87,501.04,657.83,501.15z"/>
					<path d="M660.1,501.38c0.01-0.01,0.02-0.01,0.03-0.02C660.06,501.27,660.07,501.31,660.1,501.38z"/>
					<path d="M660.1,501.38c-0.1,0.06-0.18,0.17-0.25,0.26c0.12-0.03,0.23-0.08,0.32-0.14C660.14,501.47,660.12,501.42,660.1,501.38
						z"/>
					<path d="M655.55,504.33c0.03-0.4,0.54-0.76,0.98-0.34c0.43-0.3,0.15-1.6-0.23-2.33c-0.01,0.17-0.01,0.33-0.46,0.57
						c0.15,0.22,0.98,0.51,0.61,0.86c-0.59,0.2-0.48-0.14-0.76-0.35c0.24,0.49-0.74,0.72-0.62,1.44l0.51-0.26
						C655.59,504.04,655.41,504.22,655.55,504.33z"/>
					<path d="M657.14,501.7l0.18-0.05c-0.21-0.07-0.36-0.23-0.63-0.54c-0.3,0.19-0.37,0.34-0.39,0.47l0.9,0.06L657.14,501.7z"/>
					<path d="M658.14,501.65c-0.14,0.43-0.58,0.61-0.31,1.08c0.53-0.03,0.37-0.36,0.69-0.55c-0.86,0.11,0.25-0.24-0.37-0.48
						c0.17-0.07,0.32-0.1,0.47-0.11c-0.16-0.05-0.3-0.12-0.45-0.2c0.01,0.01,0.01,0.02,0.02,0.03l0,0c0,0,0,0,0,0.01
						c0.04,0.05,0.05,0.09,0.01,0.06c0,0.01-0.01,0.01-0.02,0.01C658.17,501.54,658.16,501.6,658.14,501.65
						c-0.25-0.09-0.04-0.11,0.04-0.17c0-0.02,0.01-0.04,0.01-0.06c0,0,0,0,0-0.01l-0.86,0.24
						C657.51,501.71,657.74,501.7,658.14,501.65z"/>
					<path d="M662.47,503.81c-0.03-0.04-0.03-0.07-0.03-0.1C662.39,503.76,662.37,503.8,662.47,503.81z"/>
					<path d="M662.12,503.55c0.06-0.06,0.11-0.23,0.32-0.19c0.18,0.13,0,0.21,0.01,0.35c0.12-0.11,0.43-0.31,0.04-0.52l-0.06,0.06
						c-0.35-0.15-0.79-0.69-0.73-0.74C661.79,502.89,661.88,503.17,662.12,503.55z"/>
					<path d="M660.1,502.71l-0.72,0.21l0.37,0.37l-0.02-0.22C660.14,503.16,660.05,502.88,660.1,502.71z"/>
					<polygon points="656.18,501.37 656.28,500.91 655.86,501.56 					"/>
					<polygon points="655.25,501.42 655.28,501.03 655.03,501.27 					"/>
					<path d="M602.56,506.33l-0.21,0.11C602.45,506.41,602.52,506.37,602.56,506.33z"/>
					<path d="M604.09,506.36l0.04-0.19C604.06,506.27,604.03,506.35,604.09,506.36z"/>
					<path d="M632.32,501.47c-0.31-0.37-0.65-0.94-0.61-0.5l0.09,0.43C632.01,501.33,632.18,501.37,632.32,501.47z"/>
					<path d="M616.61,504.06c0.03,0.04,0.06,0.09,0.09,0.13c0.07-0.15,0.14-0.29,0.21-0.42
						C616.82,503.86,616.72,503.96,616.61,504.06z"/>
					<path d="M616.4,505.85l-0.41-0.28C616.08,505.67,616.21,505.76,616.4,505.85z"/>
					<path d="M594.22,506.79l-0.25,0.44C594.36,507.23,594.19,507.01,594.22,506.79z"/>
					<path d="M645.69,501.58c-0.27-0.17-0.48-0.24-0.66-0.26C645.34,501.57,645.6,501.94,645.69,501.58z"/>
					<path d="M603.16,501.73c-0.13,0.08-0.18,0.17-0.18,0.26C603.12,501.92,603.19,501.83,603.16,501.73z"/>
					<path d="M644.26,501.32c0.05,0.04,0.09,0.07,0.14,0.1c0.19-0.07,0.39-0.13,0.63-0.1C644.79,501.13,644.52,501.02,644.26,501.32
						z"/>
					<path d="M563.94,506.43c-0.02-0.02-0.05-0.03-0.07-0.05C563.87,506.44,563.9,506.44,563.94,506.43z"/>
					<path d="M555.13,502.06c0.09-0.03,0.23-0.03,0.36-0.03C555.42,501.99,555.31,502,555.13,502.06z"/>
					<path d="M651.49,501.23C651.69,501.2,651.52,501.18,651.49,501.23L651.49,501.23z"/>
					<path d="M652.45,502.95c-0.04,0.05-0.07,0.11-0.08,0.21C652.39,503.06,652.42,502.99,652.45,502.95z"/>
					<path d="M642.28,504.02c-0.01,0-0.01,0-0.02,0C642.33,504.11,642.32,504.09,642.28,504.02z"/>
					<path d="M651.79,501.43c-0.07-0.05-0.16-0.1-0.25-0.13C651.58,501.33,651.65,501.38,651.79,501.43z"/>
					<path d="M651.75,501.23c0.07,0.02,0.12,0.03,0.17,0.04C651.95,501.19,651.92,501.15,651.75,501.23z"/>
					<path d="M651.21,501.26c0.11-0.01,0.22,0.01,0.32,0.04c-0.04-0.03-0.06-0.05-0.04-0.07
						C651.43,501.24,651.35,501.25,651.21,501.26z"/>
					<path d="M580.16,505.27c-0.01-0.01-0.03-0.02-0.04-0.04C579.92,505.41,580.01,505.38,580.16,505.27z"/>
					<path d="M627.16,505.97c0.01,0,0.01-0.02,0.02-0.02c-0.01,0-0.02-0.01-0.03-0.02L627.16,505.97z"/>
					<path d="M626.45,506.3c0.3-0.54,0.48-0.47,0.7-0.36l-0.24-1.25L626.45,506.3z"/>
					<path d="M598.9,506.46l0.5,0.39c-0.6,0.64-1.04,0.42-0.57,0.97c0.07-1.36,1.94-0.14,2.01-1.5l0.33,0.29
						c-0.09-0.01-0.11,0.07-0.2,0.05c0.64,0.65,0.48-0.98,1.3-0.79c0.29,0.1,0.49,0.3,0.29,0.46l0.64-0.34
						c0.19,0.03,0.14,0.26-0.04,0.24l0.98-0.11l-0.01,0.04c0.14-0.21,0.46-0.54,0.61-0.68c0.25,0.19-0.12,0.14-0.06,0.31l0.54-0.33
						c0.22,0.35-0.23,0.69-0.6,0.64c0.51,1.36,0.45-0.34,1.54,0.45l-0.51,0.17c0.33,0.77,0.73,0.49,1.31,0.97
						c-0.14-0.25-1.16-1.21-0.57-1.55c0.17,0.1,0.38,0.15,0.7-0.12c0,0.48,0.31,0.36,0.7,0.34l-0.03,0.64
						c0.42-0.18,0.39-0.51,0.63-0.8c0.47,0.06,0.56,0.56,0.67,0.98c0.75,0.1-0.52-0.79,0.37-0.92c0.62,0.24,1.06-0.02,1.8-0.4
						c0.43,0.22-0.08,0.39,0.08,0.57l0.39-0.51c0.09,0.01,0.06,0.17,0.05,0.25c0.32-0.2,0.03-0.64,0.54-0.81
						c0.14-0.7,1.05,1.03,1.68,0.23c0.16,0.18-0.08,0.39-0.03,0.64c0.87-0.52,0.74-0.38,1.45-1.09l0.61,0.42
						c-0.45-0.48,0.12-1.05,0.62-1.52c-0.16-0.23-0.29-0.43-0.38-0.53l0.8-0.34c0.1,0.11,0.02,0.32-0.11,0.59
						c0.05-0.05,0.11-0.1,0.15-0.15c0.28,0.24,0.14,0.61-0.07,0.96c-0.1-0.13-0.19-0.26-0.29-0.39c-0.2,0.39-0.38,0.82-0.34,1.19
						c0.05-0.07,0.15-0.14,0.26-0.17c-0.05,0.11-0.08,0.2-0.06,0.26c0.03,0.07,0.11-0.07,0.24-0.24l0.18,0.71l0.04-0.28l1.04,0.45
						c0.74-0.72,1.39-1.77,2.57-2.07c-0.29,0.52-0.06,0.85-0.08,1.47c-0.32-0.66-0.92,0.28-1.53,0.15c0.32,0.07,0.25,0.36,0.17,0.47
						l1.09-0.6c-0.02,0.51,0.23,0.38,0.52,0.59c-0.22-1,0.81-0.67,1.26-0.97c0.03,0.34-0.08,0.68-0.62,0.6
						c0.6,0.75,0.77-1.18,1.36-0.54c-0.13,0.01-0.2-0.04-0.26,0.13c0.31-0.3,1.07-0.06,0.89,0.23l-0.13,0.01
						c0.88,0.12,2.68,0.01,2.81-0.84c0.01,0.11-0.12,1.03-0.17,1.2l1.57-2.86c-0.14,0.73,0.39,2.47-0.34,2.88
						c0.21,0.1,0.47,0.23,0.91-0.03c-0.14-0.1-0.36-1.06-0.16-1.12c0.54,0.81,0.37,0.43,1.03,1.13c-0.21-0.16,0.02-1.3,0.36-1.27
						c-0.05,0.17,0.03,1.13-0.1,1.25l0.84-1.12c-0.21,0.2-0.04,0.95,0.15,1.27c-0.09-0.22,0.73,0.02,0.95-0.09l-0.36-0.26
						c0.95,0.17,0.94-1.58,1.88-1.52c-0.11,0.23-0.28,1.43,0.2,1.57c0.22-0.58,0.97-2.77,1.81-3.21l0.16,0.33l0.64-0.38
						c-0.4,0.87-1.52,2.69-2.13,3.4c0.36,0.26,0.1,0.39,0.63,0.36c0.19,0.31-0.29,0.47-0.45,0.49l1.24,0.2
						c-0.06-0.67,0.95-0.67,0.9-1.23l-1.35,0.7c-0.05-0.67,0.78-1.91,1.66-1.79c0.22,0.27-0.17,1.2-0.15,1.42
						c0.11-0.23,0.83-0.44,0.91-0.28l-0.37,0.36c0.49,0.25,0.8-0.89,1.39-0.25c0.2,0.04,0.61,0.87,0.64,0.47
						c-0.33-0.77-0.4-3.14-0.18-3.72c0.07,0.05,1.07,0.73,1.3,1.11c0.33,0.6-0.5,1.43-0.22,1.95c0.01-0.18,0.2-0.41,0.27-0.48
						c0.21,0.16-0.09,0.57,0.37,0.49c0.08-0.68,0.94,0.06,0.22-0.58c0.45-0.19,0.48,0.14,1.01,0.11c-0.17-0.44,0.48-1.5,0.93-1.69
						c-0.03,0.17,0.08,0.4,0.12,0.5c0.93,0.06,1.43,0.37,2.29,0.38c0.08,0.17,0.5,0.36,0.32,0.66c0.12-0.12,0.24-0.35,0.51-0.37
						c0.52,0.59-0.6,0.09-0.2,0.8c0.03-0.4,0.69-0.55,1.07-0.79c-0.12-0.61-0.88-0.12-1.26,0.13c0-0.84,0.66-1.73,1.57-2.12
						c0.72-0.21,0.31,0.55,0.44,0.43c1.35,0.15,1.15-1.47,2.27-0.86c0.45,0.54,0.02,1.07,0.12,1.46c-0.59,0.2-0.9-0.34-1.3-0.32
						l0.49,0.25c-0.19,0.18-0.58,0.31-0.79,0.16c0.37,0.48,2.28,0.09,3.33,0.54c0.19-0.18,0.5-0.37,0.35-0.58l-0.33,0.08
						c-0.3-0.43,0.62-0.6,0.2-0.8c0.44-0.3,0.94-0.78,1.56-0.54l0.12,0.61c-0.01-0.18-0.41-0.37-0.58-0.18
						c0.26-0.27,0.96,0.83,1.24,0.03l-0.44-0.42c0.44-0.31,0.99-0.96,1.55-0.77c-0.25-0.61-0.13,0.07-0.52-0.64
						c0.34,0.88-1.41-0.04-0.87,0.89c-0.4-0.82-0.7-0.35-1.22-1.05c0.02,0.2,0.19,0.39-0.28,0.29c-0.02,0.06-0.07,0.13-0.1,0.18
						c-0.01-0.01-0.02-0.01-0.03-0.02c0.01,0.01,0.02,0.02,0.03,0.02c-0.02,0.03-0.02,0.04,0.01,0.01c0.11,0.09,0.2,0.19,0.24,0.31
						c-0.23,0.46-0.97,0.45-1.22,0.69c-0.27-0.1,0.12-0.23-0.04-0.45l-0.37,0.36c-0.04-0.45-0.73-0.75-0.08-1.01l-0.58-0.02
						c-0.34-0.25-0.82-0.35-1.11-0.16c-0.27-0.1-0.69,0.5-0.46,0.15l-0.91,0.28l-0.01-0.11c-0.9-0.06-1.86,0.74-2.89-0.07
						c-0.3,0.11-0.62,0.25-1.13,0.12l-0.1-0.39c-0.39,0.14-1.17-0.39-1.34,0.02c-0.42-1.05-1.89-0.23-2.58-0.41l-0.03,0.51
						c-0.47-0.03-0.92,0.12-1.51,0.32l0.04,0.45c-0.51,0.37-1.3-0.32-2.1-0.27c0.05-0.17,0.26-0.13,0.4-0.02
						c-0.95-1.01-2.01,0.74-2.88,0c-0.22,0.16-0.37,0.11-0.52-0.01c0.02,0,0.04-0.01,0.05-0.02c-0.02-0.01-0.05-0.01-0.09-0.01
						c-0.1-0.08-0.19-0.17-0.3-0.24c0.09,0.11,0.18,0.2,0.25,0.24c-0.17,0.01-0.42,0.07-0.67,0.18l-0.11-0.48
						c-0.02,0.01-0.04,0.01-0.06,0.01c-0.24-0.18-0.2,0.23-0.07,0.59c-0.12,0.08-0.24,0.17-0.33,0.29c-0.2-0.78-0.65,0.26-0.92-0.57
						c-0.17,0.4-1.24,0.3-1.38,1.15c-0.01-0.11-0.08-0.16,0.05-0.17c-0.28-0.1-0.55-0.19-0.8,0.05l-0.12-0.61l-0.6,0.82
						c-0.37-0.37-0.52-0.59-0.15-1.06c-0.88,0.72-0.71,0.27-1.46,0.99l0.04-0.4c-0.27,0.02-0.69,0.55-0.85,0.22
						c-0.6-0.75-2.95-0.1-4.48-0.8c0.3,1.17-0.71-0.52-0.77,0.38c-0.09-0.28-0.3-0.43-0.05-0.67c-0.78,0.27-1.17-0.44-1.71,0.32
						c-0.09-0.28,0.17-0.4,0.09-0.57c-0.06,0.06-0.25,0.24-0.33,0.08c-0.08-0.16,0.11-0.23,0.24-0.35c-0.8,0.05-0.88,0.9-0.94,1.69
						c-0.4-0.38-0.61-0.32-0.9,0.2c-0.14-0.26-0.38-0.53,0.12-0.63c-0.28-0.04-1.7-0.38-1.73,0.26c-0.09-0.16-0.39-0.05-0.46,0.03
						c-0.63-0.04-0.68-0.1-1.3-0.04l0.17,0.1c-0.24,0.77-0.51,0.17-1.01,0.26l0.01-0.08c-1.14-0.56-0.49,0.27-1.61-0.37l0.06,0.48
						c-0.1,1.03-0.99-0.61-1.64-0.21l0.23,0.27c-0.36,0.35-0.99-1.4-1.35-1.53c-0.08-0.09,0.12-0.14,0.23-0.21
						c-0.93-0.61-0.12,0.63-0.82,0.77c-0.13-0.34,0.17-0.86-0.3-0.92c-0.23-0.27-1.36,1.1-2,0.45c0.14,0.26,0.28,0.52-0.04,0.72
						c-0.5,0.09-1.34-0.99-1.79-0.16c-0.06-0.07-0.09-0.14-0.09-0.2c-0.38,0.21-1.23,0.35-1.46,0.8c-0.35-1.66-2.36,0.81-2.35-0.72
						l-1.17,0.08l0.03-0.16c-0.75-0.1-1.01,0.27-1.27,0.63c-0.17-0.1-0.05-0.25-0.03-0.33c-1.09-0.31-1.2-0.24-2.11,0.52l-0.09-0.5
						c-0.25,0.29-1.57-0.78-2.64-0.2c0.01-0.06,0.03-0.15,0.12-0.22c-1.2,0.58-2.88-1.38-3.32,0.43l-0.79,0.44
						c1.03,0.14-0.15,0.78,0.27,1.08c-0.4,0.11-1.04-0.54-0.55-0.64l0.08,0.09c0.18-0.94-1.27-0.33-1.25-0.97
						c-2.02,0.05-3.99-0.47-5.88-0.51l0.22,0.73l-0.66-0.04c-0.17-0.17-0.23-0.57,0.24-0.54c-0.25-0.41-0.79,0.35-0.8,0.51
						c-0.92-0.3,0.36-0.85,0.08-0.87l-0.38,0.05l0.09,0.09c-0.31,0.3-0.34,0.62-0.9,0.58c-0.36-0.15-0.18-0.45-0.32-0.48
						c0-0.05-0.05-0.08-0.22-0.02l-0.83-0.06l0.33,0.58c-0.37,0.28-0.78-0.03-0.4,0.62c-0.56-1.01-3.1-0.36-3.44-0.68
						c-0.52,0.42-1.02,0.41-1.66,0.36c0.16,0.12,0.25,0.77-0.29,0.69c0.2-1.34-1-0.58-1.44-1.55c0.39,0.64-1.55,0.16-0.93,1.07
						c-0.45-0.11-0.03-0.5-0.37-0.82c-1.08,0.52-2.38-0.34-3.72-0.16c-0.02,0.18,0.2,0.44-0.08,0.71l-0.71-0.88
						c-0.26,0.09-0.24,1.02-0.72,0.4c0.07,0.15,0.17,0.37-0.01,0.43c-2.62-0.86-5.35,0.7-8-0.91c0.36,0.34,0.12,0.37-0.15,0.39
						c0.18,0.08,0,0.43,0.03,0.67l-1.11-0.66c-0.2,0.66-1.19,0.04-1.31,0.68l0.35-0.11c-0.47,0.75,0.66,1.66,0.59,2.62
						c0.52-0.85,1.38,1.26,2.24,0.04c0.19,0.2-0.16,0.31-0.06,0.53c0.22-0.41,0.48-0.5,0.97-0.31l-0.06,0.1
						c1.37-0.1,1.96,0.3,3.5,0.57l-0.11-0.47c0.33,0.06,0.4,0.21,0.56,0.33c0.38-0.72-0.93-0.04-0.58-0.83
						c0.44,0.96,2.33,0.01,2.63,1.11c0.51,0.01-0.15-0.55,0.36-0.54l0.14,0.3l0.13-0.38c0.33,0.06,0.5,0.43,0.51,0.68
						c-0.08-0.03-0.23,0.07-0.32,0.09c0.43,0.35,1.22-0.12,1.37-0.01l-0.49-0.18c1.39-0.28,3.09,0.11,4.43-0.49l-0.1-0.22
						c1.03-0.41,0.82,0.25,1.95,0.05l-0.04,0.05c0.23-0.22,0.53-0.33,0.83-0.31c-0.28,0.26,0.53,0.51,0.16,0.8
						c1.11-0.44,0.55-0.35,1.28-1.18l0.17,0.37c0.25-0.34,0.27-0.51,0.83-0.61c-0.46,0.32,0.36,0.57-0.16,0.99
						c1.18,0.81,1.75-0.82,2.29,0.37c0.54-1.03-1.02-0.57-0.72-0.79c-0.25-0.34,0.45-0.77,0.82-0.66c0.38,0.02,0.64,1.31,1.59,1.29
						c-0.09,0-0.1,0.07-0.19,0.07c0.35,0.26,0.7-0.35,1.13,0.07c0.24-0.62,0.57,0.04,0.64-0.76l-0.87,0.18
						c0.49-0.21,0.96-1.13,1.77-0.68c-0.06,0.16-0.3,0.37-0.47,0.49c0.24,0.23,0.46-0.15,0.7,0.08c-0.07,0.79-1.06,0.17-1.59,0.78
						c0.25,0.33,1-0.57,0.73,0.28c0.38-1.09,0.93,0.14,1.58-0.7l-0.04,0.47c0.1-0.07,0.31-0.3,0.5-0.29l-0.34,0.62
						c0.52-0.52,1,0.46,1.5,0.17c-1.04,0.01-0.23-0.57-0.68-0.92c1.29-0.64,0.74,1.24,2.18,1.01c-0.2,0.07-0.73-0.29-0.43-0.5
						c0.27,0.1,0.64,0.28,0.81,0.53c0.96-0.1-0.15-0.49,0.26-0.78c0.33,0.58,0.47-0.24,0.89-0.42l0,0.48
						c1.09,0.31,0.29-1.01,1.27-0.63l-0.41,0.67l0.51-0.17l-0.11,0.55c0.56-0.41,0.73-0.3,1.27-0.15c-0.13-0.34,0.07-0.88,0.55-0.89
						c0.33,0.29-0.18,0.46,0.5,0.39c-0.15,0.3-0.32,0.68-0.62,0.24c-0.03,0.16-0.15,0.3-0.18,0.46c0.35,0.33,0.89,0.08,1.14,0.07
						c-0.1-0.02-0.21-0.04-0.27-0.11l0.99-0.67c0.16,0.18,0.03,0.33-0.09,0.47c0.2-0.05,0.34-0.27,0.63-0.32
						c-0.08,0.39-0.06,0.8-0.48,0.98l0.94-0.44c0.06,0.17,0.48,0.47,0.36,0.61c0.52,0.23,1.28-0.76,1.98-0.46
						c0.04-0.08,0.11-0.15,0.26-0.2c0.65,0.09,1.23,0.57,2,0.03l0.44,0.7c0.61-0.16-0.59-0.89,0.41-1.15
						c0.71-0.22,0.27,0.6,0.52,0.8c0.35-0.35,0.97-1.08,1.63-0.5C599.28,506.51,599.11,506.41,598.9,506.46z M606.37,506.15
						c-0.14,0.1-0.43,0.41-0.54,0.13C605.99,505.72,606.12,505.99,606.37,506.15z M617.71,504.98c-0.11,0.16-0.27,0.08-0.46-0.1
						C617.39,504.84,617.54,504.86,617.71,504.98z M649.32,501.63c-0.01,0.01-0.01,0.01-0.02,0.02
						C648.98,501.46,649.1,501.54,649.32,501.63z M649.99,501.83c0.07-0.07,0.06-0.13,0.03-0.2c-0.05,0.12-0.2,0.13-0.37,0.1
						C649.7,501.86,649.79,501.94,649.99,501.83z M578.05,502.02l0.13,0.13C577.89,502.29,577.97,502.16,578.05,502.02z"/>
					<path d="M616.43,505.64c-0.04-0.08-0.05-0.17-0.06-0.26C616.31,505.46,616.31,505.56,616.43,505.64z"/>
					<path d="M594.26,506.71c-0.01,0-0.02,0-0.02-0.01c-0.01,0.03-0.02,0.06-0.02,0.09L594.26,506.71z"/>
					<path d="M639.61,505.93c-0.14-0.07-0.21-0.16-0.27-0.25C639.34,505.79,639.4,505.89,639.61,505.93z"/>
					<path d="M653.54,501.02l-0.43,0.13c0.21-0.02,0.28,0.08,0.39,0.16C653.49,501.19,653.41,501.02,653.54,501.02z"/>
					<path d="M657.26,504c0.06-0.06,0.13-0.01,0.19-0.07l-0.02-0.22C657.18,503.72,656.99,503.91,657.26,504z"/>
					<path d="M653.94,502.62c0.03,0.41,0.3,0.27,0.6,0.19c-0.02,0-0.04,0-0.05,0C654.58,502.24,654.26,502.43,653.94,502.62z"/>
					<path d="M654.61,502.8c0.09-0.02,0.19-0.03,0.28-0.01C654.92,502.56,654.78,502.74,654.61,502.8z"/>
					<path d="M650.84,501.57c0.14,0.1,0.09-0.52,0.17-0.35C651.17,500.7,650.06,501.84,650.84,501.57z"/>
					<polygon points="654.18,503.96 654.07,503.45 653.9,503.86 					"/>
					<path d="M651.81,503.59l0.48,0.14c-0.01-0.08,0.05-0.13,0.13-0.17C652.12,503.54,651.8,503.44,651.81,503.59z"/>
					<path d="M652.42,503.56c0.15,0.01,0.3,0,0.39-0.08C652.72,503.48,652.54,503.49,652.42,503.56z"/>
					<polygon points="653.52,504.11 653.38,504 653.04,503.96 					"/>
					<path d="M646.64,503.49l-0.52,0.14c-0.05,0.17,0.09,0.28,0.28,0.21C646.53,503.72,646.72,503.66,646.64,503.49z"/>
					<path d="M648.23,504.86c-0.14-0.1-0.15-0.22-0.23-0.38l-0.02,0.62L648.23,504.86z"/>
					<path d="M646.7,505.01c-0.05,0.17-0.76,0.49-0.1,0.46C646.66,505.29,647.18,505.15,646.7,505.01z"/>
					<polygon points="638.8,504.22 638.94,504.21 638.92,503.2 					"/>
					<path d="M631.84,506.66c0.62,0.24,0.15-0.63,0.71-0.32c0.15-0.24-0.46-0.25-0.31-0.46
						C631.87,506.13,631.67,505.99,631.84,506.66z"/>
					<path d="M632.24,505.88c0.06-0.04,0.12-0.09,0.19-0.15C632.32,505.79,632.27,505.84,632.24,505.88z"/>
					<polygon points="553.66,501.51 553.26,501.3 553.52,501.64 					"/>
					<path d="M552.9,502.26l-0.09-0.65l-0.24,0.59C552.65,502.17,552.83,502.12,552.9,502.26z"/>
					<path d="M607.48,507.45l0.03-0.16c-0.06-0.17-0.16-0.18-0.34-0.21L607.48,507.45z"/>
					<polygon points="602.06,506.97 602.15,506.98 601.98,506.39 					"/>
					<path d="M597.51,507.72c0.19,0.02,0.4-0.11,0.59-0.08C597.7,507.74,597.46,506.98,597.51,507.72z"/>
				</g>
			</g>
		</g>
	</g>
</g>
<path class="st5" d="M698.7,446.74"/>
<path class="st6" d="M418.84,530.28c0,10.83,0,21.66,0,32.49h33.9c92.64-0.34,185.28-0.68,277.91-1.02v-34.29V493.3V384.02H418.84
	c0,8.58,0,17.16,0,25.74"/>
<path class="st6" d="M426.6,538.28c0,5.73,0,11.46,0,17.19h32.18c87.94-0.31,175.89-0.63,263.83-0.94v-31.49v-31.36V391.32H426.6
	c0,3.37,0,6.74,0,10.11"/>
<ellipse class="st7" cx="720.9" cy="561.01" rx="1.96" ry="1.42"/>
<path class="st7" d="M485.6,597.51c30.79-2.54,61.59-5.08,92.38-7.62c26.23,3.67,52.45,7.35,78.68,11.02
	c-24.64-6.42-49.27-12.83-73.9-19.25V565.2h-12v17.83C542.37,587.86,513.98,592.69,485.6,597.51z"/>
</svg>
